<?xml version="1.0" encoding="UTF-8"?>
<svg width="309px" height="309px" viewBox="0 0 309 309" version="1.1" xmlns="http://www.w3.org/2000/svg" xmlns:xlink="http://www.w3.org/1999/xlink">
    <title>Line</title>
    <defs>
        <circle id="path-1" cx="154.5" cy="154.5" r="154.5"></circle>
        <filter x="-33.1%" y="-43.0%" width="166.1%" height="185.9%" filterUnits="objectBoundingBox" id="filter-3">
            <feGaussianBlur stdDeviation="14" in="SourceGraphic"></feGaussianBlur>
        </filter>
    </defs>
    <g id="Page-1" stroke="none" stroke-width="1" fill="none" fill-rule="evenodd">
        <g id="WPF" transform="translate(-109.000000, 0.000000)">
            <g id="Line" transform="translate(109.000000, 0.000000)">
                <mask id="mask-2" fill="white">
                    <use xlink:href="#path-1"></use>
                </mask>
                <use id="Mask" fill="#603CF5" xlink:href="#path-1"></use>
                <g id="Group" mask="url(#mask-2)">
                    <g transform="translate(63.000000, 94.681052)" id="Combined-Shape">
                        <path d="M111.994674,59.8436676 C113.363156,60.5007171 113.939886,62.1427347 113.282836,63.5112167 C113.277927,63.5214416 113.272954,63.531636 113.267919,63.5417994 L98.114,94.1270599 L150.0625,94.1274614 C152.789406,94.1274614 155,96.3380555 155,99.0649614 C155,101.652746 153.009212,103.775558 150.475606,103.985425 L140.198437,149.011672 C139.150134,153.604356 134.708337,157.327461 130.277405,157.327461 L52.7225949,157.327461 C48.2916633,157.327461 43.8498661,153.604356 42.8015631,149.011672 L32.5243938,103.985425 C29.9907882,103.775558 28,101.652746 28,99.0649614 C28,96.3380555 30.210594,94.1274614 32.9375,94.1274614 L85.583,94.1270599 L70.4298833,63.5417994 C70.4273655,63.5367177 70.4248635,63.5316283 70.4223773,63.5265311 L70.414966,63.5112167 C69.7579165,62.1427347 70.3346464,60.5007171 71.7031284,59.8436676 C73.0936526,59.1760349 74.7625319,59.7506203 75.447327,61.1327732 L75.447327,61.1327732 L91.6360508,93.8072076 L91.6360508,93.8072076 L91.6509681,93.8377903 C91.6968015,93.9332506 91.7366313,94.0300419 91.7706077,94.127737 L91.9271945,94.127737 C91.9611709,94.0300419 92.0010007,93.9332506 92.0468341,93.8377903 C92.0517434,93.8275654 92.0567159,93.817371 92.0617514,93.8072076 L108.250475,61.1327732 C108.93527,59.7506203 110.60415,59.1760349 111.994674,59.8436676 Z" fill="#000000" opacity="0.396846226" filter="url(#filter-3)"></path>
                        <path d="M120.343387,0.387686576 L120.37032,0.400658248 C122.336297,1.34754327 123.162434,3.70888424 122.215549,5.67486094 C122.209884,5.68662245 122.204161,5.69835581 122.19838,5.71006058 L100.476,49.689 L175.0875,49.6899614 C178.905168,49.6899614 182,52.7847931 182,56.6024614 C182,60.1543253 179.32112,63.0805032 175.873601,63.4707544 L161.09643,128.586014 C159.598268,135.187997 153.25036,140.539961 146.917979,140.539961 L36.0820208,140.539961 C29.7496405,140.539961 23.4017318,135.187997 21.9035699,128.586014 L7.137,63.514 L6.9125,63.5149614 C3.09483167,63.5149614 4.6752953e-16,60.4201298 0,56.6024614 C-4.6752953e-16,52.7847931 3.09483167,49.6899614 6.9125,49.6899614 L82.523,49.689 L60.8016202,5.71006058 C60.7987296,5.7042082 60.7958536,5.69834866 60.7929921,5.69248204 L60.7844513,5.67486094 C59.8375663,3.70888424 60.6637033,1.34754327 62.62968,0.400658248 L62.62968,0.400658248 L62.6566125,0.387686576 C64.6329945,-0.564210007 67.0072948,0.253276182 67.9787345,2.2201259 L67.9787345,2.2201259 L91.1983798,49.2323623 C91.2041609,49.2440671 91.2098839,49.2558004 91.2155487,49.2675619 C91.2824337,49.4064324 91.3404721,49.5472756 91.389887,49.6894536 L91.610113,49.6894536 C91.6595279,49.5472756 91.7175663,49.4064324 91.7844513,49.2675619 C91.7901161,49.2558004 91.7958391,49.2440671 91.8016202,49.2323623 L115.021265,2.2201259 C115.992705,0.253276182 118.367005,-0.564210007 120.343387,0.387686576 Z" fill="#E2E2E2"></path>
                    </g>
                </g>
                <path d="M163,-23.00625 L163,54.006 L199,54.00625 L154.5,143.00625 L110,54.00625 L146,54.006 L146,-23.00625 L163,-23.00625 Z" fill="#5233D4" fill-rule="nonzero"></path>
            </g>
        </g>
    </g>
</svg>