<?xml version="1.0" encoding="UTF-8"?>
<svg width="309px" height="309px" viewBox="0 0 309 309" version="1.1" xmlns="http://www.w3.org/2000/svg" xmlns:xlink="http://www.w3.org/1999/xlink">
    <title>Line</title>
    <defs>
        <circle id="path-1" cx="154.5" cy="154.5" r="154.5"></circle>
    </defs>
    <g id="Page-1" stroke="none" stroke-width="1" fill="none" fill-rule="evenodd">
        <g id="Line">
            <mask id="mask-2" fill="white">
                <use xlink:href="#path-1"></use>
            </mask>
            <use id="Mask" fill="#FFFFFF" xlink:href="#path-1"></use>
            <g id="Group" mask="url(#mask-2)" fill="#603CF5">
                <g transform="translate(63.000000, 94.681052)" id="Combined-Shape">
                    <path d="M120.343387,0.387686576 L120.37032,0.400658248 C122.336297,1.34754327 123.162434,3.70888424 122.215549,5.67486094 C122.209884,5.68662245 122.204161,5.69835581 122.19838,5.71006058 L100.476,49.689 L175.0875,49.6899614 C178.905168,49.6899614 182,52.7847931 182,56.6024614 C182,60.1543253 179.32112,63.0805032 175.873601,63.4707544 L161.09643,128.586014 C159.598268,135.187997 153.25036,140.539961 146.917979,140.539961 L36.0820208,140.539961 C29.7496405,140.539961 23.4017318,135.187997 21.9035699,128.586014 L7.137,63.514 L6.9125,63.5149614 C3.09483167,63.5149614 4.6752953e-16,60.4201298 0,56.6024614 C-4.6752953e-16,52.7847931 3.09483167,49.6899614 6.9125,49.6899614 L82.523,49.689 L60.8016202,5.71006058 C60.7987296,5.7042082 60.7958536,5.69834866 60.7929921,5.69248204 L60.7844513,5.67486094 C59.8375663,3.70888424 60.6637033,1.34754327 62.62968,0.400658248 L62.62968,0.400658248 L62.6566125,0.387686576 C64.6329945,-0.564210007 67.0072948,0.253276182 67.9787345,2.2201259 L67.9787345,2.2201259 L91.1983798,49.2323623 C91.2041609,49.2440671 91.2098839,49.2558004 91.2155487,49.2675619 C91.2824337,49.4064324 91.3404721,49.5472756 91.389887,49.6894536 L91.610113,49.6894536 C91.6595279,49.5472756 91.7175663,49.4064324 91.7844513,49.2675619 C91.7901161,49.2558004 91.7958391,49.2440671 91.8016202,49.2323623 L115.021265,2.2201259 C115.992705,0.253276182 118.367005,-0.564210007 120.343387,0.387686576 Z"></path>
                </g>
            </g>
            <path d="M163,-23.00625 L163,54.006 L199,54.00625 L154.5,143.00625 L110,54.00625 L146,54.006 L146,-23.00625 L163,-23.00625 Z" fill="#E1E1E1" fill-rule="nonzero"></path>
        </g>
    </g>
</svg>