<?xml version="1.0" encoding="UTF-8"?>
<svg width="800px" height="489px" viewBox="0 0 800 489" version="1.1" xmlns="http://www.w3.org/2000/svg" xmlns:xlink="http://www.w3.org/1999/xlink">
    <title>Group 13</title>
    <defs>
        <rect id="path-1" x="0" y="0" width="800" height="489"></rect>
        <linearGradient x1="100%" y1="-12.816%" x2="0%" y2="-12.816%" id="linearGradient-3">
            <stop stop-color="#F6F8FA" stop-opacity="0" offset="0%"></stop>
            <stop stop-color="#E3E7EB" offset="50.045%"></stop>
            <stop stop-color="#F6F8FA" stop-opacity="0" offset="100%"></stop>
        </linearGradient>
        <circle id="path-4" cx="62" cy="62" r="62"></circle>
        <filter x="-82.4%" y="-107.1%" width="264.8%" height="314.1%" filterUnits="objectBoundingBox" id="filter-6">
            <feGaussianBlur stdDeviation="14" in="SourceGraphic"></feGaussianBlur>
        </filter>
    </defs>
    <g id="Page-1" stroke="none" stroke-width="1" fill="none" fill-rule="evenodd">
        <g id="Group-13">
            <mask id="mask-2" fill="white">
                <use xlink:href="#path-1"></use>
            </mask>
            <g id="Mask"></g>
            <g mask="url(#mask-2)">
                <g id="window" transform="translate(0.000000, 39.000000)" fill-rule="nonzero">
                    <rect id="Rectangle" fill="#FFFFFF" style="mix-blend-mode: multiply;" x="0" y="0" width="800" height="450" rx="4"></rect>
                    <rect id="Rectangle" fill="#FFFFFF" x="0" y="0" width="800" height="450" rx="4"></rect>
                    <g id="Group" transform="translate(0.000000, 12.000000)">
                        <circle id="Oval" fill="#FF6D8B" cx="36" cy="4" r="4"></circle>
                        <circle id="Oval" fill="#FFCB4F" cx="52" cy="4" r="4"></circle>
                        <circle id="Oval" fill="#7CE8DD" cx="68" cy="4" r="4"></circle>
                        <polygon id="Path" fill="url(#linearGradient-3)" points="0 20 800 20 800 22 0 22"></polygon>
                        <polygon id="Path" fill="#E3E7EB" points="742 2 766 2 766 6 742 6"></polygon>
                    </g>
                </g>
                <g id="Group-10" opacity="0.539997646" transform="translate(40.000000, 281.000000)" stroke="#979797">
                    <line x1="0.5" y1="47.5" x2="719.5" y2="47.5" id="Line-3" stroke-linecap="square"></line>
                    <line x1="0.5" y1="147.5" x2="719.5" y2="147.5" id="Line-3" stroke-linecap="square"></line>
                    <line x1="150.5" y1="0.5" x2="150.5" y2="234.5" id="Line-4" stroke-linecap="square"></line>
                    <line x1="310.5" y1="0.5" x2="310.5" y2="234.5" id="Line-4" stroke-linecap="square"></line>
                    <line x1="480.5" y1="0.5" x2="480.5" y2="234.5" id="Line-4" stroke-linecap="square"></line>
                    <line x1="620.5" y1="0.5" x2="620.5" y2="234.5" id="Line-4" stroke-linecap="square"></line>
                    <rect id="Rectangle" x="0.5" y="0.5" width="718" height="233" rx="5"></rect>
                </g>
                <rect id="Rectangle" fill="#5D3AEF" x="177" y="199" width="121" height="20" rx="3"></rect>
                <path d="M189.28,212.18 C189.8,212.18 190.28,212.126667 190.72,212.02 C191.16,211.913333 191.566667,211.76 191.94,211.56 L191.94,211.56 L191.94,208.13 L189.39,208.13 L189.39,208.97 L190.96,208.97 L190.96,210.94 C190.753333,211.053333 190.51,211.14 190.23,211.2 C189.95,211.26 189.643333,211.29 189.31,211.29 C188.89,211.29 188.51,211.216667 188.17,211.07 C187.83,210.923333 187.543333,210.721667 187.31,210.465 C187.076667,210.208333 186.896667,209.906667 186.77,209.56 C186.643333,209.213333 186.58,208.843333 186.58,208.45 C186.58,208.063333 186.643333,207.698333 186.77,207.355 C186.896667,207.011667 187.076667,206.71 187.31,206.45 C187.543333,206.19 187.826667,205.985 188.16,205.835 C188.493333,205.685 188.866667,205.61 189.28,205.61 C189.686667,205.61 190.055,205.68 190.385,205.82 C190.715,205.96 190.986667,206.146667 191.2,206.38 L191.2,206.38 L191.89,205.66 C191.596667,205.38 191.228333,205.156667 190.785,204.99 C190.341667,204.823333 189.836667,204.74 189.27,204.74 C188.73,204.74 188.23,204.83 187.77,205.01 C187.31,205.19 186.911667,205.441667 186.575,205.765 C186.238333,206.088333 185.975,206.478333 185.785,206.935 C185.595,207.391667 185.5,207.896667 185.5,208.45 C185.5,208.996667 185.593333,209.498333 185.78,209.955 C185.966667,210.411667 186.226667,210.805 186.56,211.135 C186.893333,211.465 187.291667,211.721667 187.755,211.905 C188.218333,212.088333 188.726667,212.18 189.28,212.18 Z M194.07,206.15 C194.243333,206.15 194.391667,206.093333 194.515,205.98 C194.638333,205.866667 194.7,205.723333 194.7,205.55 C194.7,205.376667 194.638333,205.231667 194.515,205.115 C194.391667,204.998333 194.243333,204.94 194.07,204.94 C193.896667,204.94 193.75,204.998333 193.63,205.115 C193.51,205.231667 193.45,205.376667 193.45,205.55 C193.45,205.716667 193.51,205.858333 193.63,205.975 C193.75,206.091667 193.896667,206.15 194.07,206.15 Z M194.54,212 L194.54,207.26 L193.6,207.26 L193.6,212 L194.54,212 Z M198.84,212.13 C199.206667,212.13 199.536667,212.065 199.83,211.935 C200.123333,211.805 200.373333,211.626667 200.58,211.4 C200.786667,211.173333 200.946667,210.906667 201.06,210.6 C201.173333,210.293333 201.23,209.966667 201.23,209.62 C201.23,209.273333 201.173333,208.948333 201.06,208.645 C200.946667,208.341667 200.785,208.076667 200.575,207.85 C200.365,207.623333 200.115,207.446667 199.825,207.32 C199.535,207.193333 199.213333,207.13 198.86,207.13 C198.466667,207.13 198.126667,207.211667 197.84,207.375 C197.553333,207.538333 197.33,207.736667 197.17,207.97 L197.17,207.97 L197.14,207.97 L197.14,204.44 L196.2,204.44 L196.2,212 L197.11,212 L197.11,211.25 L197.13,211.25 C197.316667,211.536667 197.563333,211.755 197.87,211.905 C198.176667,212.055 198.5,212.13 198.84,212.13 Z M198.68,211.34 C198.44,211.34 198.221667,211.293333 198.025,211.2 C197.828333,211.106667 197.66,210.981667 197.52,210.825 C197.38,210.668333 197.271667,210.486667 197.195,210.28 C197.118333,210.073333 197.08,209.856667 197.08,209.63 C197.08,209.403333 197.118333,209.186667 197.195,208.98 C197.271667,208.773333 197.38,208.59 197.52,208.43 C197.66,208.27 197.828333,208.143333 198.025,208.05 C198.221667,207.956667 198.44,207.91 198.68,207.91 C198.94,207.91 199.168333,207.956667 199.365,208.05 C199.561667,208.143333 199.726667,208.27 199.86,208.43 C199.993333,208.59 200.093333,208.773333 200.16,208.98 C200.226667,209.186667 200.26,209.4 200.26,209.62 C200.26,209.84 200.226667,210.053333 200.16,210.26 C200.093333,210.466667 199.993333,210.65 199.86,210.81 C199.726667,210.97 199.561667,211.098333 199.365,211.195 C199.168333,211.291667 198.94,211.34 198.68,211.34 Z M203.9,212.13 C204.14,212.13 204.373333,212.103333 204.6,212.05 C204.826667,211.996667 205.028333,211.908333 205.205,211.785 C205.381667,211.661667 205.523333,211.503333 205.63,211.31 C205.736667,211.116667 205.79,210.88 205.79,210.6 C205.79,210.393333 205.75,210.213333 205.67,210.06 C205.59,209.906667 205.478333,209.775 205.335,209.665 C205.191667,209.555 205.023333,209.463333 204.83,209.39 C204.636667,209.316667 204.426667,209.253333 204.2,209.2 C203.84,209.12 203.57,209.031667 203.39,208.935 C203.21,208.838333 203.12,208.69 203.12,208.49 C203.12,208.376667 203.145,208.281667 203.195,208.205 C203.245,208.128333 203.311667,208.065 203.395,208.015 C203.478333,207.965 203.573333,207.928333 203.68,207.905 C203.786667,207.881667 203.893333,207.87 204,207.87 C204.24,207.87 204.456667,207.925 204.65,208.035 C204.843333,208.145 204.993333,208.286667 205.1,208.46 L205.1,208.46 L205.75,207.91 C205.576667,207.656667 205.331667,207.463333 205.015,207.33 C204.698333,207.196667 204.37,207.13 204.03,207.13 C203.803333,207.13 203.583333,207.158333 203.37,207.215 C203.156667,207.271667 202.966667,207.358333 202.8,207.475 C202.633333,207.591667 202.498333,207.741667 202.395,207.925 C202.291667,208.108333 202.24,208.326667 202.24,208.58 C202.24,208.8 202.281667,208.985 202.365,209.135 C202.448333,209.285 202.556667,209.41 202.69,209.51 C202.823333,209.61 202.971667,209.688333 203.135,209.745 C203.298333,209.801667 203.46,209.85 203.62,209.89 C204.026667,209.983333 204.335,210.083333 204.545,210.19 C204.755,210.296667 204.86,210.46 204.86,210.68 C204.86,210.813333 204.833333,210.923333 204.78,211.01 C204.726667,211.096667 204.655,211.166667 204.565,211.22 C204.475,211.273333 204.375,211.311667 204.265,211.335 C204.155,211.358333 204.04,211.37 203.92,211.37 C203.653333,211.37 203.408333,211.306667 203.185,211.18 C202.961667,211.053333 202.786667,210.896667 202.66,210.71 L202.66,210.71 L201.99,211.28 C202.216667,211.566667 202.501667,211.78 202.845,211.92 C203.188333,212.06 203.54,212.13 203.9,212.13 Z M209.22,212.13 C209.58,212.13 209.916667,212.068333 210.23,211.945 C210.543333,211.821667 210.815,211.648333 211.045,211.425 C211.275,211.201667 211.455,210.936667 211.585,210.63 C211.715,210.323333 211.78,209.986667 211.78,209.62 C211.78,209.253333 211.715,208.918333 211.585,208.615 C211.455,208.311667 211.275,208.05 211.045,207.83 C210.815,207.61 210.543333,207.438333 210.23,207.315 C209.916667,207.191667 209.58,207.13 209.22,207.13 C208.86,207.13 208.523333,207.191667 208.21,207.315 C207.896667,207.438333 207.626667,207.61 207.4,207.83 C207.173333,208.05 206.995,208.311667 206.865,208.615 C206.735,208.918333 206.67,209.253333 206.67,209.62 C206.67,209.986667 206.735,210.323333 206.865,210.63 C206.995,210.936667 207.173333,211.201667 207.4,211.425 C207.626667,211.648333 207.896667,211.821667 208.21,211.945 C208.523333,212.068333 208.86,212.13 209.22,212.13 Z M209.22,211.34 C208.966667,211.34 208.741667,211.293333 208.545,211.2 C208.348333,211.106667 208.183333,210.98 208.05,210.82 C207.916667,210.66 207.815,210.476667 207.745,210.27 C207.675,210.063333 207.64,209.846667 207.64,209.62 C207.64,209.393333 207.675,209.176667 207.745,208.97 C207.815,208.763333 207.916667,208.581667 208.05,208.425 C208.183333,208.268333 208.348333,208.143333 208.545,208.05 C208.741667,207.956667 208.966667,207.91 209.22,207.91 C209.473333,207.91 209.698333,207.956667 209.895,208.05 C210.091667,208.143333 210.256667,208.268333 210.39,208.425 C210.523333,208.581667 210.625,208.763333 210.695,208.97 C210.765,209.176667 210.8,209.393333 210.8,209.62 C210.8,209.846667 210.765,210.063333 210.695,210.27 C210.625,210.476667 210.523333,210.66 210.39,210.82 C210.256667,210.98 210.091667,211.106667 209.895,211.2 C209.698333,211.293333 209.473333,211.34 209.22,211.34 Z M214.02,212 L214.02,209.48 C214.02,209.006667 214.138333,208.628333 214.375,208.345 C214.611667,208.061667 214.916667,207.92 215.29,207.92 C215.51,207.92 215.69,207.96 215.83,208.04 C215.97,208.12 216.08,208.226667 216.16,208.36 C216.24,208.493333 216.295,208.646667 216.325,208.82 C216.355,208.993333 216.37,209.176667 216.37,209.37 L216.37,209.37 L216.37,212 L217.31,212 L217.31,209.06 C217.31,208.793333 217.275,208.543333 217.205,208.31 C217.135,208.076667 217.026667,207.873333 216.88,207.7 C216.733333,207.526667 216.55,207.388333 216.33,207.285 C216.11,207.181667 215.846667,207.13 215.54,207.13 C215.366667,207.13 215.2,207.153333 215.04,207.2 C214.88,207.246667 214.733333,207.311667 214.6,207.395 C214.466667,207.478333 214.348333,207.575 214.245,207.685 C214.141667,207.795 214.06,207.913333 214,208.04 L214,208.04 L213.97,208.04 C213.97,207.94 213.966667,207.815 213.96,207.665 C213.953333,207.515 213.943333,207.38 213.93,207.26 L213.93,207.26 L213.04,207.26 C213.053333,207.413333 213.063333,207.59 213.07,207.79 C213.076667,207.99 213.08,208.153333 213.08,208.28 L213.08,208.28 L213.08,212 L214.02,212 Z M225.6,212 L225.6,211.12 L222.44,211.12 L222.44,204.92 L221.45,204.92 L221.45,212 L225.6,212 Z M228.7,212.13 C229.12,212.13 229.501667,212.051667 229.845,211.895 C230.188333,211.738333 230.486667,211.493333 230.74,211.16 L230.74,211.16 L230.08,210.63 C229.946667,210.83 229.763333,211 229.53,211.14 C229.296667,211.28 229.02,211.35 228.7,211.35 C228.493333,211.35 228.298333,211.313333 228.115,211.24 C227.931667,211.166667 227.77,211.065 227.63,210.935 C227.49,210.805 227.378333,210.651667 227.295,210.475 C227.211667,210.298333 227.166667,210.11 227.16,209.91 L227.16,209.91 L230.92,209.91 C230.926667,209.856667 230.93,209.803333 230.93,209.75 L230.93,209.75 L230.93,209.59 C230.93,209.21 230.876667,208.868333 230.77,208.565 C230.663333,208.261667 230.511667,208.003333 230.315,207.79 C230.118333,207.576667 229.878333,207.413333 229.595,207.3 C229.311667,207.186667 228.996667,207.13 228.65,207.13 C228.303333,207.13 227.98,207.191667 227.68,207.315 C227.38,207.438333 227.12,207.61 226.9,207.83 C226.68,208.05 226.508333,208.315 226.385,208.625 C226.261667,208.935 226.2,209.273333 226.2,209.64 C226.2,210.013333 226.263333,210.353333 226.39,210.66 C226.516667,210.966667 226.69,211.228333 226.91,211.445 C227.13,211.661667 227.393333,211.83 227.7,211.95 C228.006667,212.07 228.34,212.13 228.7,212.13 Z M229.98,209.21 L227.16,209.21 C227.173333,209.023333 227.221667,208.848333 227.305,208.685 C227.388333,208.521667 227.495,208.38 227.625,208.26 C227.755,208.14 227.908333,208.045 228.085,207.975 C228.261667,207.905 228.45,207.87 228.65,207.87 C228.87,207.87 229.061667,207.905 229.225,207.975 C229.388333,208.045 229.525,208.14 229.635,208.26 C229.745,208.38 229.828333,208.521667 229.885,208.685 C229.941667,208.848333 229.973333,209.023333 229.98,209.21 L229.98,209.21 Z M233.6,212.13 C233.84,212.13 234.073333,212.103333 234.3,212.05 C234.526667,211.996667 234.728333,211.908333 234.905,211.785 C235.081667,211.661667 235.223333,211.503333 235.33,211.31 C235.436667,211.116667 235.49,210.88 235.49,210.6 C235.49,210.393333 235.45,210.213333 235.37,210.06 C235.29,209.906667 235.178333,209.775 235.035,209.665 C234.891667,209.555 234.723333,209.463333 234.53,209.39 C234.336667,209.316667 234.126667,209.253333 233.9,209.2 C233.54,209.12 233.27,209.031667 233.09,208.935 C232.91,208.838333 232.82,208.69 232.82,208.49 C232.82,208.376667 232.845,208.281667 232.895,208.205 C232.945,208.128333 233.011667,208.065 233.095,208.015 C233.178333,207.965 233.273333,207.928333 233.38,207.905 C233.486667,207.881667 233.593333,207.87 233.7,207.87 C233.94,207.87 234.156667,207.925 234.35,208.035 C234.543333,208.145 234.693333,208.286667 234.8,208.46 L234.8,208.46 L235.45,207.91 C235.276667,207.656667 235.031667,207.463333 234.715,207.33 C234.398333,207.196667 234.07,207.13 233.73,207.13 C233.503333,207.13 233.283333,207.158333 233.07,207.215 C232.856667,207.271667 232.666667,207.358333 232.5,207.475 C232.333333,207.591667 232.198333,207.741667 232.095,207.925 C231.991667,208.108333 231.94,208.326667 231.94,208.58 C231.94,208.8 231.981667,208.985 232.065,209.135 C232.148333,209.285 232.256667,209.41 232.39,209.51 C232.523333,209.61 232.671667,209.688333 232.835,209.745 C232.998333,209.801667 233.16,209.85 233.32,209.89 C233.726667,209.983333 234.035,210.083333 234.245,210.19 C234.455,210.296667 234.56,210.46 234.56,210.68 C234.56,210.813333 234.533333,210.923333 234.48,211.01 C234.426667,211.096667 234.355,211.166667 234.265,211.22 C234.175,211.273333 234.075,211.311667 233.965,211.335 C233.855,211.358333 233.74,211.37 233.62,211.37 C233.353333,211.37 233.108333,211.306667 232.885,211.18 C232.661667,211.053333 232.486667,210.896667 232.36,210.71 L232.36,210.71 L231.69,211.28 C231.916667,211.566667 232.201667,211.78 232.545,211.92 C232.888333,212.06 233.24,212.13 233.6,212.13 Z M240.22,212 L240.22,208.89 L241.34,208.89 C241.706667,208.89 242.048333,208.851667 242.365,208.775 C242.681667,208.698333 242.955,208.58 243.185,208.42 C243.415,208.26 243.595,208.053333 243.725,207.8 C243.855,207.546667 243.92,207.243333 243.92,206.89 C243.92,206.543333 243.86,206.246667 243.74,206 C243.62,205.753333 243.45,205.55 243.23,205.39 C243.01,205.23 242.743333,205.111667 242.43,205.035 C242.116667,204.958333 241.77,204.92 241.39,204.92 L241.39,204.92 L239.23,204.92 L239.23,212 L240.22,212 Z M241.27,208.05 L240.22,208.05 L240.22,205.76 L241.29,205.76 C241.523333,205.76 241.74,205.778333 241.94,205.815 C242.14,205.851667 242.311667,205.915 242.455,206.005 C242.598333,206.095 242.711667,206.211667 242.795,206.355 C242.878333,206.498333 242.92,206.676667 242.92,206.89 C242.92,207.103333 242.88,207.283333 242.8,207.43 C242.72,207.576667 242.606667,207.695 242.46,207.785 C242.313333,207.875 242.138333,207.941667 241.935,207.985 C241.731667,208.028333 241.51,208.05 241.27,208.05 L241.27,208.05 Z M246.5,212.12 C246.86,212.12 247.171667,212.05 247.435,211.91 C247.698333,211.77 247.916667,211.573333 248.09,211.32 L248.09,211.32 L248.12,211.32 C248.12,211.546667 248.146667,211.773333 248.2,212 L248.2,212 L249.05,212 C249.023333,211.886667 249.005,211.741667 248.995,211.565 C248.985,211.388333 248.98,211.22 248.98,211.06 L248.98,211.06 L248.98,208.99 C248.98,208.73 248.94,208.486667 248.86,208.26 C248.78,208.033333 248.66,207.836667 248.5,207.67 C248.34,207.503333 248.135,207.371667 247.885,207.275 C247.635,207.178333 247.34,207.13 247,207.13 C246.613333,207.13 246.251667,207.193333 245.915,207.32 C245.578333,207.446667 245.293333,207.62 245.06,207.84 L245.06,207.84 L245.56,208.44 C245.72,208.28 245.918333,208.148333 246.155,208.045 C246.391667,207.941667 246.643333,207.89 246.91,207.89 C247.263333,207.89 247.546667,207.975 247.76,208.145 C247.973333,208.315 248.08,208.576667 248.08,208.93 L248.08,208.93 L248.08,209.06 C247.68,209.06 247.283333,209.076667 246.89,209.11 C246.496667,209.143333 246.143333,209.215 245.83,209.325 C245.516667,209.435 245.263333,209.595 245.07,209.805 C244.876667,210.015 244.78,210.3 244.78,210.66 C244.78,210.933333 244.835,211.163333 244.945,211.35 C245.055,211.536667 245.193333,211.686667 245.36,211.8 C245.526667,211.913333 245.711667,211.995 245.915,212.045 C246.118333,212.095 246.313333,212.12 246.5,212.12 Z M246.71,211.38 C246.59,211.38 246.473333,211.368333 246.36,211.345 C246.246667,211.321667 246.143333,211.28 246.05,211.22 C245.956667,211.16 245.881667,211.083333 245.825,210.99 C245.768333,210.896667 245.74,210.78 245.74,210.64 C245.74,210.44 245.806667,210.28 245.94,210.16 C246.073333,210.04 246.241667,209.95 246.445,209.89 C246.648333,209.83 246.875,209.79 247.125,209.77 C247.375,209.75 247.616667,209.74 247.85,209.74 L247.85,209.74 L248.08,209.74 L248.08,209.99 C248.08,210.39 247.961667,210.721667 247.725,210.985 C247.488333,211.248333 247.15,211.38 246.71,211.38 Z M252.28,212.13 C252.626667,212.13 252.941667,212.041667 253.225,211.865 C253.508333,211.688333 253.71,211.473333 253.83,211.22 L253.83,211.22 L253.85,211.22 C253.85,211.32 253.853333,211.445 253.86,211.595 C253.866667,211.745 253.876667,211.88 253.89,212 L253.89,212 L254.78,212 C254.766667,211.846667 254.756667,211.67 254.75,211.47 C254.743333,211.27 254.74,211.106667 254.74,210.98 L254.74,207.26 L253.8,207.26 L253.8,209.78 C253.8,210.253333 253.683333,210.631667 253.45,210.915 C253.216667,211.198333 252.91,211.34 252.53,211.34 C252.31,211.34 252.13,211.3 251.99,211.22 C251.85,211.14 251.74,211.033333 251.66,210.9 C251.58,210.766667 251.525,210.611667 251.495,210.435 C251.465,210.258333 251.45,210.073333 251.45,209.88 L251.45,209.88 L251.45,207.26 L250.51,207.26 L250.51,210.2 C250.51,210.466667 250.545,210.716667 250.615,210.95 C250.685,211.183333 250.791667,211.388333 250.935,211.565 C251.078333,211.741667 251.261667,211.88 251.485,211.98 C251.708333,212.08 251.973333,212.13 252.28,212.13 Z M257.33,212 L257.33,204.44 L256.39,204.44 L256.39,212 L257.33,212 Z M264,212 L264,205.79 L266.27,205.79 L266.27,204.92 L260.74,204.92 L260.74,205.79 L263.01,205.79 L263.01,212 L264,212 Z M268.1,212 L268.1,209.51 C268.1,209.31 268.126667,209.118333 268.18,208.935 C268.233333,208.751667 268.315,208.59 268.425,208.45 C268.535,208.31 268.673333,208.198333 268.84,208.115 C269.006667,208.031667 269.203333,207.99 269.43,207.99 C269.583333,207.99 269.726667,208.006667 269.86,208.04 L269.86,208.04 L269.9,207.17 C269.8,207.143333 269.676667,207.13 269.53,207.13 C269.21,207.13 268.921667,207.215 268.665,207.385 C268.408333,207.555 268.213333,207.78 268.08,208.06 L268.08,208.06 L268.05,208.06 C268.05,207.96 268.046667,207.831667 268.04,207.675 C268.033333,207.518333 268.023333,207.38 268.01,207.26 L268.01,207.26 L267.12,207.26 C267.133333,207.413333 267.143333,207.59 267.15,207.79 C267.156667,207.99 267.16,208.153333 267.16,208.28 L267.16,208.28 L267.16,212 L268.1,212 Z M271.26,206.15 C271.433333,206.15 271.581667,206.093333 271.705,205.98 C271.828333,205.866667 271.89,205.723333 271.89,205.55 C271.89,205.376667 271.828333,205.231667 271.705,205.115 C271.581667,204.998333 271.433333,204.94 271.26,204.94 C271.086667,204.94 270.94,204.998333 270.82,205.115 C270.7,205.231667 270.64,205.376667 270.64,205.55 C270.64,205.716667 270.7,205.858333 270.82,205.975 C270.94,206.091667 271.086667,206.15 271.26,206.15 Z M271.73,212 L271.73,207.26 L270.79,207.26 L270.79,212 L271.73,212 Z M276.03,212.13 C276.396667,212.13 276.726667,212.065 277.02,211.935 C277.313333,211.805 277.563333,211.626667 277.77,211.4 C277.976667,211.173333 278.136667,210.906667 278.25,210.6 C278.363333,210.293333 278.42,209.966667 278.42,209.62 C278.42,209.273333 278.363333,208.948333 278.25,208.645 C278.136667,208.341667 277.975,208.076667 277.765,207.85 C277.555,207.623333 277.305,207.446667 277.015,207.32 C276.725,207.193333 276.403333,207.13 276.05,207.13 C275.656667,207.13 275.316667,207.211667 275.03,207.375 C274.743333,207.538333 274.52,207.736667 274.36,207.97 L274.36,207.97 L274.33,207.97 L274.33,204.44 L273.39,204.44 L273.39,212 L274.3,212 L274.3,211.25 L274.32,211.25 C274.506667,211.536667 274.753333,211.755 275.06,211.905 C275.366667,212.055 275.69,212.13 276.03,212.13 Z M275.87,211.34 C275.63,211.34 275.411667,211.293333 275.215,211.2 C275.018333,211.106667 274.85,210.981667 274.71,210.825 C274.57,210.668333 274.461667,210.486667 274.385,210.28 C274.308333,210.073333 274.27,209.856667 274.27,209.63 C274.27,209.403333 274.308333,209.186667 274.385,208.98 C274.461667,208.773333 274.57,208.59 274.71,208.43 C274.85,208.27 275.018333,208.143333 275.215,208.05 C275.411667,207.956667 275.63,207.91 275.87,207.91 C276.13,207.91 276.358333,207.956667 276.555,208.05 C276.751667,208.143333 276.916667,208.27 277.05,208.43 C277.183333,208.59 277.283333,208.773333 277.35,208.98 C277.416667,209.186667 277.45,209.4 277.45,209.62 C277.45,209.84 277.416667,210.053333 277.35,210.26 C277.283333,210.466667 277.183333,210.65 277.05,210.81 C276.916667,210.97 276.751667,211.098333 276.555,211.195 C276.358333,211.291667 276.13,211.34 275.87,211.34 Z M281.46,212.13 C281.806667,212.13 282.121667,212.041667 282.405,211.865 C282.688333,211.688333 282.89,211.473333 283.01,211.22 L283.01,211.22 L283.03,211.22 C283.03,211.32 283.033333,211.445 283.04,211.595 C283.046667,211.745 283.056667,211.88 283.07,212 L283.07,212 L283.96,212 C283.946667,211.846667 283.936667,211.67 283.93,211.47 C283.923333,211.27 283.92,211.106667 283.92,210.98 L283.92,207.26 L282.98,207.26 L282.98,209.78 C282.98,210.253333 282.863333,210.631667 282.63,210.915 C282.396667,211.198333 282.09,211.34 281.71,211.34 C281.49,211.34 281.31,211.3 281.17,211.22 C281.03,211.14 280.92,211.033333 280.84,210.9 C280.76,210.766667 280.705,210.611667 280.675,210.435 C280.645,210.258333 280.63,210.073333 280.63,209.88 L280.63,209.88 L280.63,207.26 L279.69,207.26 L279.69,210.2 C279.69,210.466667 279.725,210.716667 279.795,210.95 C279.865,211.183333 279.971667,211.388333 280.115,211.565 C280.258333,211.741667 280.441667,211.88 280.665,211.98 C280.888333,212.08 281.153333,212.13 281.46,212.13 Z M287.06,212.08 C287.206667,212.08 287.348333,212.068333 287.485,212.045 C287.621667,212.021667 287.746667,211.99 287.86,211.95 L287.86,211.95 L287.83,211.18 C287.75,211.22 287.66,211.25 287.56,211.27 C287.46,211.29 287.366667,211.3 287.28,211.3 C287.046667,211.3 286.876667,211.238333 286.77,211.115 C286.663333,210.991667 286.61,210.786667 286.61,210.5 L286.61,210.5 L286.61,208.03 L287.87,208.03 L287.87,207.26 L286.61,207.26 L286.61,205.9 L285.68,205.9 L285.68,207.26 L284.77,207.26 L284.77,208.03 L285.68,208.03 L285.68,210.6 C285.68,211.093333 285.798333,211.463333 286.035,211.71 C286.271667,211.956667 286.613333,212.08 287.06,212.08 Z M291.03,212.13 C291.45,212.13 291.831667,212.051667 292.175,211.895 C292.518333,211.738333 292.816667,211.493333 293.07,211.16 L293.07,211.16 L292.41,210.63 C292.276667,210.83 292.093333,211 291.86,211.14 C291.626667,211.28 291.35,211.35 291.03,211.35 C290.823333,211.35 290.628333,211.313333 290.445,211.24 C290.261667,211.166667 290.1,211.065 289.96,210.935 C289.82,210.805 289.708333,210.651667 289.625,210.475 C289.541667,210.298333 289.496667,210.11 289.49,209.91 L289.49,209.91 L293.25,209.91 C293.256667,209.856667 293.26,209.803333 293.26,209.75 L293.26,209.75 L293.26,209.59 C293.26,209.21 293.206667,208.868333 293.1,208.565 C292.993333,208.261667 292.841667,208.003333 292.645,207.79 C292.448333,207.576667 292.208333,207.413333 291.925,207.3 C291.641667,207.186667 291.326667,207.13 290.98,207.13 C290.633333,207.13 290.31,207.191667 290.01,207.315 C289.71,207.438333 289.45,207.61 289.23,207.83 C289.01,208.05 288.838333,208.315 288.715,208.625 C288.591667,208.935 288.53,209.273333 288.53,209.64 C288.53,210.013333 288.593333,210.353333 288.72,210.66 C288.846667,210.966667 289.02,211.228333 289.24,211.445 C289.46,211.661667 289.723333,211.83 290.03,211.95 C290.336667,212.07 290.67,212.13 291.03,212.13 Z M292.31,209.21 L289.49,209.21 C289.503333,209.023333 289.551667,208.848333 289.635,208.685 C289.718333,208.521667 289.825,208.38 289.955,208.26 C290.085,208.14 290.238333,208.045 290.415,207.975 C290.591667,207.905 290.78,207.87 290.98,207.87 C291.2,207.87 291.391667,207.905 291.555,207.975 C291.718333,208.045 291.855,208.14 291.965,208.26 C292.075,208.38 292.158333,208.521667 292.215,208.685 C292.271667,208.848333 292.303333,209.023333 292.31,209.21 L292.31,209.21 Z" id="GibsonLesPaulTribute" fill="#FFFFFF" fill-rule="nonzero"></path>
                <rect id="Rectangle" fill="#F4F2F2" x="40" y="147" width="611" height="45" rx="5"></rect>
                <path d="M59.276,175.306 C60.16,175.306 60.976,175.215333 61.724,175.034 C62.472,174.852667 63.1633333,174.592 63.798,174.252 L63.798,174.252 L63.798,168.421 L59.463,168.421 L59.463,169.849 L62.132,169.849 L62.132,173.198 C61.7806667,173.390667 61.367,173.538 60.891,173.64 C60.415,173.742 59.8936667,173.793 59.327,173.793 C58.613,173.793 57.967,173.668333 57.389,173.419 C56.811,173.169667 56.3236667,172.826833 55.927,172.3905 C55.5303333,171.954167 55.2243333,171.441333 55.009,170.852 C54.7936667,170.262667 54.686,169.633667 54.686,168.965 C54.686,168.307667 54.7936667,167.687167 55.009,167.1035 C55.2243333,166.519833 55.5303333,166.007 55.927,165.565 C56.3236667,165.123 56.8053333,164.7745 57.372,164.5195 C57.9386667,164.2645 58.5733333,164.137 59.276,164.137 C59.9673333,164.137 60.5935,164.256 61.1545,164.494 C61.7155,164.732 62.1773333,165.049333 62.54,165.446 L62.54,165.446 L63.713,164.222 C63.2143333,163.746 62.5881667,163.366333 61.8345,163.083 C61.0808333,162.799667 60.2223333,162.658 59.259,162.658 C58.341,162.658 57.491,162.811 56.709,163.117 C55.927,163.423 55.2498333,163.850833 54.6775,164.4005 C54.1051667,164.950167 53.6575,165.613167 53.3345,166.3895 C53.0115,167.165833 52.85,168.024333 52.85,168.965 C52.85,169.894333 53.0086667,170.747167 53.326,171.5235 C53.6433333,172.299833 54.0853333,172.9685 54.652,173.5295 C55.2186667,174.0905 55.8958333,174.526833 56.6835,174.8385 C57.4711667,175.150167 58.3353333,175.306 59.276,175.306 Z M67.419,165.055 C67.7136667,165.055 67.9658333,164.958667 68.1755,164.766 C68.3851667,164.573333 68.49,164.329667 68.49,164.035 C68.49,163.740333 68.3851667,163.493833 68.1755,163.2955 C67.9658333,163.097167 67.7136667,162.998 67.419,162.998 C67.1243333,162.998 66.875,163.097167 66.671,163.2955 C66.467,163.493833 66.365,163.740333 66.365,164.035 C66.365,164.318333 66.467,164.559167 66.671,164.7575 C66.875,164.955833 67.1243333,165.055 67.419,165.055 Z M68.218,175 L68.218,166.942 L66.62,166.942 L66.62,175 L68.218,175 Z M75.528,175.221 C76.1513333,175.221 76.7123333,175.1105 77.211,174.8895 C77.7096667,174.6685 78.1346667,174.365333 78.486,173.98 C78.8373333,173.594667 79.1093333,173.141333 79.302,172.62 C79.4946667,172.098667 79.591,171.543333 79.591,170.954 C79.591,170.364667 79.4946667,169.812167 79.302,169.2965 C79.1093333,168.780833 78.8345,168.330333 78.4775,167.945 C78.1205,167.559667 77.6955,167.259333 77.2025,167.044 C76.7095,166.828667 76.1626667,166.721 75.562,166.721 C74.8933333,166.721 74.3153333,166.859833 73.828,167.1375 C73.3406667,167.415167 72.961,167.752333 72.689,168.149 L72.689,168.149 L72.638,168.149 L72.638,162.148 L71.04,162.148 L71.04,175 L72.587,175 L72.587,173.725 L72.621,173.725 C72.9383333,174.212333 73.3576667,174.5835 73.879,174.8385 C74.4003333,175.0935 74.95,175.221 75.528,175.221 Z M75.256,173.878 C74.848,173.878 74.4768333,173.798667 74.1425,173.64 C73.8081667,173.481333 73.522,173.268833 73.284,173.0025 C73.046,172.736167 72.8618333,172.427333 72.7315,172.076 C72.6011667,171.724667 72.536,171.356333 72.536,170.971 C72.536,170.585667 72.6011667,170.217333 72.7315,169.866 C72.8618333,169.514667 73.046,169.203 73.284,168.931 C73.522,168.659 73.8081667,168.443667 74.1425,168.285 C74.4768333,168.126333 74.848,168.047 75.256,168.047 C75.698,168.047 76.0861667,168.126333 76.4205,168.285 C76.7548333,168.443667 77.0353333,168.659 77.262,168.931 C77.4886667,169.203 77.6586667,169.514667 77.772,169.866 C77.8853333,170.217333 77.942,170.58 77.942,170.954 C77.942,171.328 77.8853333,171.690667 77.772,172.042 C77.6586667,172.393333 77.4886667,172.705 77.262,172.977 C77.0353333,173.249 76.7548333,173.467167 76.4205,173.6315 C76.0861667,173.795833 75.698,173.878 75.256,173.878 Z M84.13,175.221 C84.538,175.221 84.9346667,175.175667 85.32,175.085 C85.7053333,174.994333 86.0481667,174.844167 86.3485,174.6345 C86.6488333,174.424833 86.8896667,174.155667 87.071,173.827 C87.2523333,173.498333 87.343,173.096 87.343,172.62 C87.343,172.268667 87.275,171.962667 87.139,171.702 C87.003,171.441333 86.8131667,171.2175 86.5695,171.0305 C86.3258333,170.8435 86.0396667,170.687667 85.711,170.563 C85.3823333,170.438333 85.0253333,170.330667 84.64,170.24 C84.028,170.104 83.569,169.953833 83.263,169.7895 C82.957,169.625167 82.804,169.373 82.804,169.033 C82.804,168.840333 82.8465,168.678833 82.9315,168.5485 C83.0165,168.418167 83.1298333,168.3105 83.2715,168.2255 C83.4131667,168.1405 83.5746667,168.078167 83.756,168.0385 C83.9373333,167.998833 84.1186667,167.979 84.3,167.979 C84.708,167.979 85.0763333,168.0725 85.405,168.2595 C85.7336667,168.4465 85.9886667,168.687333 86.17,168.982 L86.17,168.982 L87.275,168.047 C86.9803333,167.616333 86.5638333,167.287667 86.0255,167.061 C85.4871667,166.834333 84.929,166.721 84.351,166.721 C83.9656667,166.721 83.5916667,166.769167 83.229,166.8655 C82.8663333,166.961833 82.5433333,167.109167 82.26,167.3075 C81.9766667,167.505833 81.7471667,167.760833 81.5715,168.0725 C81.3958333,168.384167 81.308,168.755333 81.308,169.186 C81.308,169.56 81.3788333,169.8745 81.5205,170.1295 C81.6621667,170.3845 81.8463333,170.597 82.073,170.767 C82.2996667,170.937 82.5518333,171.070167 82.8295,171.1665 C83.1071667,171.262833 83.382,171.345 83.654,171.413 C84.3453333,171.571667 84.8695,171.741667 85.2265,171.923 C85.5835,172.104333 85.762,172.382 85.762,172.756 C85.762,172.982667 85.7166667,173.169667 85.626,173.317 C85.5353333,173.464333 85.4135,173.583333 85.2605,173.674 C85.1075,173.764667 84.9375,173.829833 84.7505,173.8695 C84.5635,173.909167 84.368,173.929 84.164,173.929 C83.7106667,173.929 83.2941667,173.821333 82.9145,173.606 C82.5348333,173.390667 82.2373333,173.124333 82.022,172.807 L82.022,172.807 L80.883,173.776 C81.2683333,174.263333 81.7528333,174.626 82.3365,174.864 C82.9201667,175.102 83.518,175.221 84.13,175.221 Z M93.174,175.221 C93.786,175.221 94.3583333,175.116167 94.891,174.9065 C95.4236667,174.696833 95.8855,174.402167 96.2765,174.0225 C96.6675,173.642833 96.9735,173.192333 97.1945,172.671 C97.4155,172.149667 97.526,171.577333 97.526,170.954 C97.526,170.330667 97.4155,169.761167 97.1945,169.2455 C96.9735,168.729833 96.6675,168.285 96.2765,167.911 C95.8855,167.537 95.4236667,167.245167 94.891,167.0355 C94.3583333,166.825833 93.786,166.721 93.174,166.721 C92.562,166.721 91.9896667,166.825833 91.457,167.0355 C90.9243333,167.245167 90.4653333,167.537 90.08,167.911 C89.6946667,168.285 89.3915,168.729833 89.1705,169.2455 C88.9495,169.761167 88.839,170.330667 88.839,170.954 C88.839,171.577333 88.9495,172.149667 89.1705,172.671 C89.3915,173.192333 89.6946667,173.642833 90.08,174.0225 C90.4653333,174.402167 90.9243333,174.696833 91.457,174.9065 C91.9896667,175.116167 92.562,175.221 93.174,175.221 Z M93.174,173.878 C92.7433333,173.878 92.3608333,173.798667 92.0265,173.64 C91.6921667,173.481333 91.4116667,173.266 91.185,172.994 C90.9583333,172.722 90.7855,172.410333 90.6665,172.059 C90.5475,171.707667 90.488,171.339333 90.488,170.954 C90.488,170.568667 90.5475,170.200333 90.6665,169.849 C90.7855,169.497667 90.9583333,169.188833 91.185,168.9225 C91.4116667,168.656167 91.6921667,168.443667 92.0265,168.285 C92.3608333,168.126333 92.7433333,168.047 93.174,168.047 C93.6046667,168.047 93.9871667,168.126333 94.3215,168.285 C94.6558333,168.443667 94.9363333,168.656167 95.163,168.9225 C95.3896667,169.188833 95.5625,169.497667 95.6815,169.849 C95.8005,170.200333 95.86,170.568667 95.86,170.954 C95.86,171.339333 95.8005,171.707667 95.6815,172.059 C95.5625,172.410333 95.3896667,172.722 95.163,172.994 C94.9363333,173.266 94.6558333,173.481333 94.3215,173.64 C93.9871667,173.798667 93.6046667,173.878 93.174,173.878 Z M101.334,175 L101.334,170.716 C101.334,169.911333 101.535167,169.268167 101.9375,168.7865 C102.339833,168.304833 102.858333,168.064 103.493,168.064 C103.867,168.064 104.173,168.132 104.411,168.268 C104.649,168.404 104.836,168.585333 104.972,168.812 C105.108,169.038667 105.2015,169.299333 105.2525,169.594 C105.3035,169.888667 105.329,170.200333 105.329,170.529 L105.329,170.529 L105.329,175 L106.927,175 L106.927,170.002 C106.927,169.548667 106.8675,169.123667 106.7485,168.727 C106.6295,168.330333 106.445333,167.984667 106.196,167.69 C105.946667,167.395333 105.635,167.160167 105.261,166.9845 C104.887,166.808833 104.439333,166.721 103.918,166.721 C103.623333,166.721 103.34,166.760667 103.068,166.84 C102.796,166.919333 102.546667,167.029833 102.32,167.1715 C102.093333,167.313167 101.892167,167.4775 101.7165,167.6645 C101.540833,167.8515 101.402,168.052667 101.3,168.268 L101.3,168.268 L101.249,168.268 C101.249,168.098 101.243333,167.8855 101.232,167.6305 C101.220667,167.3755 101.203667,167.146 101.181,166.942 L101.181,166.942 L99.668,166.942 C99.6906667,167.202667 99.7076667,167.503 99.719,167.843 C99.7303333,168.183 99.736,168.460667 99.736,168.676 L99.736,168.676 L99.736,175 L101.334,175 Z M121.02,175 L121.02,173.504 L115.648,173.504 L115.648,162.964 L113.965,162.964 L113.965,175 L121.02,175 Z M126.29,175.221 C127.004,175.221 127.652833,175.087833 128.2365,174.8215 C128.820167,174.555167 129.327333,174.138667 129.758,173.572 L129.758,173.572 L128.636,172.671 C128.409333,173.011 128.097667,173.3 127.701,173.538 C127.304333,173.776 126.834,173.895 126.29,173.895 C125.938667,173.895 125.607167,173.832667 125.2955,173.708 C124.983833,173.583333 124.709,173.4105 124.471,173.1895 C124.233,172.9685 124.043167,172.707833 123.9015,172.4075 C123.759833,172.107167 123.683333,171.787 123.672,171.447 L123.672,171.447 L130.064,171.447 C130.075333,171.356333 130.081,171.265667 130.081,171.175 L130.081,171.175 L130.081,170.903 C130.081,170.257 129.990333,169.676167 129.809,169.1605 C129.627667,168.644833 129.369833,168.205667 129.0355,167.843 C128.701167,167.480333 128.293167,167.202667 127.8115,167.01 C127.329833,166.817333 126.794333,166.721 126.205,166.721 C125.615667,166.721 125.066,166.825833 124.556,167.0355 C124.046,167.245167 123.604,167.537 123.23,167.911 C122.856,168.285 122.564167,168.7355 122.3545,169.2625 C122.144833,169.7895 122.04,170.364667 122.04,170.988 C122.04,171.622667 122.147667,172.200667 122.363,172.722 C122.578333,173.243333 122.873,173.688167 123.247,174.0565 C123.621,174.424833 124.068667,174.711 124.59,174.915 C125.111333,175.119 125.678,175.221 126.29,175.221 Z M128.466,170.257 L123.672,170.257 C123.694667,169.939667 123.776833,169.642167 123.9185,169.3645 C124.060167,169.086833 124.2415,168.846 124.4625,168.642 C124.6835,168.438 124.944167,168.2765 125.2445,168.1575 C125.544833,168.0385 125.865,167.979 126.205,167.979 C126.579,167.979 126.904833,168.0385 127.1825,168.1575 C127.460167,168.2765 127.6925,168.438 127.8795,168.642 C128.0665,168.846 128.208167,169.086833 128.3045,169.3645 C128.400833,169.642167 128.454667,169.939667 128.466,170.257 L128.466,170.257 Z M134.62,175.221 C135.028,175.221 135.424667,175.175667 135.81,175.085 C136.195333,174.994333 136.538167,174.844167 136.8385,174.6345 C137.138833,174.424833 137.379667,174.155667 137.561,173.827 C137.742333,173.498333 137.833,173.096 137.833,172.62 C137.833,172.268667 137.765,171.962667 137.629,171.702 C137.493,171.441333 137.303167,171.2175 137.0595,171.0305 C136.815833,170.8435 136.529667,170.687667 136.201,170.563 C135.872333,170.438333 135.515333,170.330667 135.13,170.24 C134.518,170.104 134.059,169.953833 133.753,169.7895 C133.447,169.625167 133.294,169.373 133.294,169.033 C133.294,168.840333 133.3365,168.678833 133.4215,168.5485 C133.5065,168.418167 133.619833,168.3105 133.7615,168.2255 C133.903167,168.1405 134.064667,168.078167 134.246,168.0385 C134.427333,167.998833 134.608667,167.979 134.79,167.979 C135.198,167.979 135.566333,168.0725 135.895,168.2595 C136.223667,168.4465 136.478667,168.687333 136.66,168.982 L136.66,168.982 L137.765,168.047 C137.470333,167.616333 137.053833,167.287667 136.5155,167.061 C135.977167,166.834333 135.419,166.721 134.841,166.721 C134.455667,166.721 134.081667,166.769167 133.719,166.8655 C133.356333,166.961833 133.033333,167.109167 132.75,167.3075 C132.466667,167.505833 132.237167,167.760833 132.0615,168.0725 C131.885833,168.384167 131.798,168.755333 131.798,169.186 C131.798,169.56 131.868833,169.8745 132.0105,170.1295 C132.152167,170.3845 132.336333,170.597 132.563,170.767 C132.789667,170.937 133.041833,171.070167 133.3195,171.1665 C133.597167,171.262833 133.872,171.345 134.144,171.413 C134.835333,171.571667 135.3595,171.741667 135.7165,171.923 C136.0735,172.104333 136.252,172.382 136.252,172.756 C136.252,172.982667 136.206667,173.169667 136.116,173.317 C136.025333,173.464333 135.9035,173.583333 135.7505,173.674 C135.5975,173.764667 135.4275,173.829833 135.2405,173.8695 C135.0535,173.909167 134.858,173.929 134.654,173.929 C134.200667,173.929 133.784167,173.821333 133.4045,173.606 C133.024833,173.390667 132.727333,173.124333 132.512,172.807 L132.512,172.807 L131.373,173.776 C131.758333,174.263333 132.242833,174.626 132.8265,174.864 C133.410167,175.102 134.008,175.221 134.62,175.221 Z M145.874,175 L145.874,169.713 L147.778,169.713 C148.401333,169.713 148.982167,169.647833 149.5205,169.5175 C150.058833,169.387167 150.5235,169.186 150.9145,168.914 C151.3055,168.642 151.6115,168.290667 151.8325,167.86 C152.0535,167.429333 152.164,166.913667 152.164,166.313 C152.164,165.723667 152.062,165.219333 151.858,164.8 C151.654,164.380667 151.365,164.035 150.991,163.763 C150.617,163.491 150.163667,163.289833 149.631,163.1595 C149.098333,163.029167 148.509,162.964 147.863,162.964 L147.863,162.964 L144.191,162.964 L144.191,175 L145.874,175 Z M147.659,168.285 L145.874,168.285 L145.874,164.392 L147.693,164.392 C148.089667,164.392 148.458,164.423167 148.798,164.4855 C149.138,164.547833 149.429833,164.6555 149.6735,164.8085 C149.917167,164.9615 150.109833,165.159833 150.2515,165.4035 C150.393167,165.647167 150.464,165.950333 150.464,166.313 C150.464,166.675667 150.396,166.981667 150.26,167.231 C150.124,167.480333 149.931333,167.6815 149.682,167.8345 C149.432667,167.9875 149.135167,168.100833 148.7895,168.1745 C148.443833,168.248167 148.067,168.285 147.659,168.285 L147.659,168.285 Z M156.55,175.204 C157.162,175.204 157.691833,175.085 158.1395,174.847 C158.587167,174.609 158.958333,174.274667 159.253,173.844 L159.253,173.844 L159.304,173.844 C159.304,174.229333 159.349333,174.614667 159.44,175 L159.44,175 L160.885,175 C160.839667,174.807333 160.8085,174.560833 160.7915,174.2605 C160.7745,173.960167 160.766,173.674 160.766,173.402 L160.766,173.402 L160.766,169.883 C160.766,169.441 160.698,169.027333 160.562,168.642 C160.426,168.256667 160.222,167.922333 159.95,167.639 C159.678,167.355667 159.3295,167.131833 158.9045,166.9675 C158.4795,166.803167 157.978,166.721 157.4,166.721 C156.742667,166.721 156.127833,166.828667 155.5555,167.044 C154.983167,167.259333 154.498667,167.554 154.102,167.928 L154.102,167.928 L154.952,168.948 C155.224,168.676 155.561167,168.452167 155.9635,168.2765 C156.365833,168.100833 156.793667,168.013 157.247,168.013 C157.847667,168.013 158.329333,168.1575 158.692,168.4465 C159.054667,168.7355 159.236,169.180333 159.236,169.781 L159.236,169.781 L159.236,170.002 C158.556,170.002 157.881667,170.030333 157.213,170.087 C156.544333,170.143667 155.943667,170.2655 155.411,170.4525 C154.878333,170.6395 154.447667,170.9115 154.119,171.2685 C153.790333,171.6255 153.626,172.11 153.626,172.722 C153.626,173.186667 153.7195,173.577667 153.9065,173.895 C154.0935,174.212333 154.328667,174.467333 154.612,174.66 C154.895333,174.852667 155.209833,174.9915 155.5555,175.0765 C155.901167,175.1615 156.232667,175.204 156.55,175.204 Z M156.907,173.946 C156.703,173.946 156.504667,173.926167 156.312,173.8865 C156.119333,173.846833 155.943667,173.776 155.785,173.674 C155.626333,173.572 155.498833,173.441667 155.4025,173.283 C155.306167,173.124333 155.258,172.926 155.258,172.688 C155.258,172.348 155.371333,172.076 155.598,171.872 C155.824667,171.668 156.110833,171.515 156.4565,171.413 C156.802167,171.311 157.1875,171.243 157.6125,171.209 C158.0375,171.175 158.448333,171.158 158.845,171.158 L158.845,171.158 L159.236,171.158 L159.236,171.583 C159.236,172.263 159.034833,172.826833 158.6325,173.2745 C158.230167,173.722167 157.655,173.946 156.907,173.946 Z M166.376,175.221 C166.965333,175.221 167.500833,175.070833 167.9825,174.7705 C168.464167,174.470167 168.807,174.104667 169.011,173.674 L169.011,173.674 L169.045,173.674 C169.045,173.844 169.050667,174.0565 169.062,174.3115 C169.073333,174.5665 169.090333,174.796 169.113,175 L169.113,175 L170.626,175 C170.603333,174.739333 170.586333,174.439 170.575,174.099 C170.563667,173.759 170.558,173.481333 170.558,173.266 L170.558,166.942 L168.96,166.942 L168.96,171.226 C168.96,172.030667 168.761667,172.673833 168.365,173.1555 C167.968333,173.637167 167.447,173.878 166.801,173.878 C166.427,173.878 166.121,173.81 165.883,173.674 C165.645,173.538 165.458,173.356667 165.322,173.13 C165.186,172.903333 165.0925,172.639833 165.0415,172.3395 C164.9905,172.039167 164.965,171.724667 164.965,171.396 L164.965,171.396 L164.965,166.942 L163.367,166.942 L163.367,171.94 C163.367,172.393333 163.4265,172.818333 163.5455,173.215 C163.6645,173.611667 163.845833,173.960167 164.0895,174.2605 C164.333167,174.560833 164.644833,174.796 165.0245,174.966 C165.404167,175.136 165.854667,175.221 166.376,175.221 Z M174.961,175 L174.961,162.148 L173.363,162.148 L173.363,175 L174.961,175 Z" id="GibsonLesPaul" fill="#222222" fill-rule="nonzero"></path>
                <path d="M44.114,258 L44.114,253.325 L48.772,253.325 L48.772,250.928 L44.114,250.928 L44.114,248.446 L49.163,248.446 L49.163,245.964 L41.241,245.964 L41.241,258 L44.114,258 Z M55.147,258.272 C55.793,258.272 56.3993333,258.164333 56.966,257.949 C57.5326667,257.733667 58.0313333,257.4305 58.462,257.0395 C58.8926667,256.6485 59.2326667,256.1725 59.482,255.6115 C59.7313333,255.0505 59.856,254.424333 59.856,253.733 C59.856,253.041667 59.7313333,252.418333 59.482,251.863 C59.2326667,251.307667 58.8926667,250.837333 58.462,250.452 C58.0313333,250.066667 57.5326667,249.772 56.966,249.568 C56.3993333,249.364 55.793,249.262 55.147,249.262 C54.5123333,249.262 53.9088333,249.364 53.3365,249.568 C52.7641667,249.772 52.2655,250.066667 51.8405,250.452 C51.4155,250.837333 51.0783333,251.307667 50.829,251.863 C50.5796667,252.418333 50.455,253.041667 50.455,253.733 C50.455,254.424333 50.5796667,255.0505 50.829,255.6115 C51.0783333,256.1725 51.4155,256.6485 51.8405,257.0395 C52.2655,257.4305 52.7641667,257.733667 53.3365,257.949 C53.9088333,258.164333 54.5123333,258.272 55.147,258.272 Z M55.164,255.926 C54.8353333,255.926 54.5463333,255.863667 54.297,255.739 C54.0476667,255.614333 53.838,255.447167 53.668,255.2375 C53.498,255.027833 53.3705,254.792667 53.2855,254.532 C53.2005,254.271333 53.158,254.005 53.158,253.733 C53.158,253.461 53.2005,253.194667 53.2855,252.934 C53.3705,252.673333 53.4951667,252.443833 53.6595,252.2455 C53.8238333,252.047167 54.0306667,251.885667 54.28,251.761 C54.5293333,251.636333 54.8183333,251.574 55.147,251.574 C55.4756667,251.574 55.7646667,251.636333 56.014,251.761 C56.2633333,251.885667 56.473,252.047167 56.643,252.2455 C56.813,252.443833 56.9433333,252.673333 57.034,252.934 C57.1246667,253.194667 57.17,253.461 57.17,253.733 C57.17,254.005 57.1275,254.271333 57.0425,254.532 C56.9575,254.792667 56.83,255.027833 56.66,255.2375 C56.49,255.447167 56.2803333,255.614333 56.031,255.739 C55.7816667,255.863667 55.4926667,255.926 55.164,255.926 Z M64.616,258.238 C64.9106667,258.238 65.1911667,258.198333 65.4575,258.119 C65.7238333,258.039667 65.9675,257.937667 66.1885,257.813 C66.4095,257.688333 66.6021667,257.541 66.7665,257.371 C66.9308333,257.201 67.064,257.019667 67.166,256.827 L67.166,256.827 L67.2,256.827 L67.2,258 L69.886,258 L69.886,249.534 L67.098,249.534 L67.098,254.107 C67.098,254.594333 66.9705,255.019333 66.7155,255.382 C66.4605,255.744667 66.0893333,255.926 65.602,255.926 C65.3413333,255.926 65.1316667,255.877833 64.973,255.7815 C64.8143333,255.685167 64.6868333,255.552 64.5905,255.382 C64.4941667,255.212 64.429,255.019333 64.395,254.804 C64.361,254.588667 64.344,254.362 64.344,254.124 L64.344,254.124 L64.344,249.534 L61.539,249.534 L61.539,254.77 C61.539,255.200667 61.5928333,255.622833 61.7005,256.0365 C61.8081667,256.450167 61.9838333,256.8185 62.2275,257.1415 C62.4711667,257.4645 62.7885,257.728 63.1795,257.932 C63.5705,258.136 64.0493333,258.238 64.616,258.238 Z M74.867,258 L74.867,253.41 C74.867,253.172 74.8981667,252.9425 74.9605,252.7215 C75.0228333,252.5005 75.1163333,252.305 75.241,252.135 C75.3656667,251.965 75.5215,251.831833 75.7085,251.7355 C75.8955,251.639167 76.1136667,251.591 76.363,251.591 C76.6123333,251.591 76.8191667,251.639167 76.9835,251.7355 C77.1478333,251.831833 77.2753333,251.962167 77.366,252.1265 C77.4566667,252.290833 77.5218333,252.480667 77.5615,252.696 C77.6011667,252.911333 77.621,253.138 77.621,253.376 L77.621,253.376 L77.621,258 L80.426,258 L80.426,252.764 C80.426,252.344667 80.3721667,251.925333 80.2645,251.506 C80.1568333,251.086667 79.9811667,250.7155 79.7375,250.3925 C79.4938333,250.0695 79.1736667,249.806 78.777,249.602 C78.3803333,249.398 77.8986667,249.296 77.332,249.296 C77.0373333,249.296 76.7596667,249.335667 76.499,249.415 C76.2383333,249.494333 75.9975,249.596333 75.7765,249.721 C75.5555,249.845667 75.3628333,249.995833 75.1985,250.1715 C75.0341667,250.347167 74.901,250.525667 74.799,250.707 L74.799,250.707 L74.765,250.707 L74.765,249.534 L72.062,249.534 L72.062,258 L74.867,258 Z M86.138,258.238 C86.7046667,258.238 87.2401667,258.121833 87.7445,257.8895 C88.2488333,257.657167 88.637,257.325667 88.909,256.895 L88.909,256.895 L88.943,256.895 L88.943,258 L91.51,258 L91.51,245.148 L88.722,245.148 L88.722,250.435 L88.688,250.435 C88.45,250.151667 88.1156667,249.891 87.685,249.653 C87.2543333,249.415 86.7273333,249.296 86.104,249.296 C85.492,249.296 84.9395,249.415 84.4465,249.653 C83.9535,249.891 83.5341667,250.214 83.1885,250.622 C82.8428333,251.03 82.5765,251.503167 82.3895,252.0415 C82.2025,252.579833 82.109,253.143667 82.109,253.733 C82.109,254.322333 82.1996667,254.889 82.381,255.433 C82.5623333,255.977 82.8258333,256.455833 83.1715,256.8695 C83.5171667,257.283167 83.9393333,257.614667 84.438,257.864 C84.9366667,258.113333 85.5033333,258.238 86.138,258.238 Z M86.801,255.926 C86.4723333,255.926 86.1833333,255.863667 85.934,255.739 C85.6846667,255.614333 85.475,255.45 85.305,255.246 C85.135,255.042 85.0075,254.806833 84.9225,254.5405 C84.8375,254.274167 84.795,254.005 84.795,253.733 C84.795,253.461 84.8375,253.194667 84.9225,252.934 C85.0075,252.673333 85.135,252.443833 85.305,252.2455 C85.475,252.047167 85.6846667,251.885667 85.934,251.761 C86.1833333,251.636333 86.4723333,251.574 86.801,251.574 C87.1183333,251.574 87.4016667,251.636333 87.651,251.761 C87.9003333,251.885667 88.1128333,252.05 88.2885,252.254 C88.4641667,252.458 88.6001667,252.690333 88.6965,252.951 C88.7928333,253.211667 88.841,253.478 88.841,253.75 C88.841,254.022 88.7928333,254.288333 88.6965,254.549 C88.6001667,254.809667 88.4641667,255.042 88.2885,255.246 C88.1128333,255.45 87.9003333,255.614333 87.651,255.739 C87.4016667,255.863667 87.1183333,255.926 86.801,255.926 Z M102.135,258.323 C102.724333,258.323 103.296667,258.235167 103.852,258.0595 C104.407333,257.883833 104.903167,257.620333 105.3395,257.269 C105.775833,256.917667 106.124333,256.472833 106.385,255.9345 C106.645667,255.396167 106.776,254.758667 106.776,254.022 C106.776,253.387333 106.662667,252.832 106.436,252.356 C106.209333,251.88 105.9005,251.4805 105.5095,251.1575 C105.1185,250.8345 104.656667,250.593667 104.124,250.435 C103.591333,250.276333 103.024667,250.197 102.424,250.197 C102.242667,250.197 102.0415,250.2055 101.8205,250.2225 C101.5995,250.2395 101.398333,250.270667 101.217,250.316 L101.217,250.316 L101.319,248.412 L106.164,248.412 L106.164,245.964 L98.786,245.964 L98.497,252.849 C98.9276667,252.690333 99.4178333,252.562833 99.9675,252.4665 C100.517167,252.370167 101.007333,252.322 101.438,252.322 C101.732667,252.322 102.027333,252.350333 102.322,252.407 C102.616667,252.463667 102.880167,252.562833 103.1125,252.7045 C103.344833,252.846167 103.534667,253.036 103.682,253.274 C103.829333,253.512 103.903,253.806667 103.903,254.158 C103.903,254.736 103.7245,255.172333 103.3675,255.467 C103.0105,255.761667 102.588333,255.909 102.101,255.909 C101.625,255.909 101.214167,255.773 100.8685,255.501 C100.522833,255.229 100.287667,254.883333 100.163,254.464 L100.163,254.464 L97.562,255.263 C97.698,255.739 97.9105,256.166833 98.1995,256.5465 C98.4885,256.926167 98.8341667,257.246333 99.2365,257.507 C99.6388333,257.767667 100.0865,257.968833 100.5795,258.1105 C101.0725,258.252167 101.591,258.323 102.135,258.323 Z M116.211,258 L116.211,253.223 L117.197,253.223 L119.798,258 L123.198,258 L120.053,252.849 C120.835,252.611 121.447,252.214333 121.889,251.659 C122.331,251.103667 122.552,250.418 122.552,249.602 C122.552,248.910667 122.421667,248.332667 122.161,247.868 C121.900333,247.403333 121.551833,247.029333 121.1155,246.746 C120.679167,246.462667 120.186167,246.2615 119.6365,246.1425 C119.086833,246.0235 118.523,245.964 117.945,245.964 L117.945,245.964 L113.355,245.964 L113.355,258 L116.211,258 Z M117.571,251.115 L116.194,251.115 L116.194,248.31 L117.741,248.31 C117.956333,248.31 118.180167,248.327 118.4125,248.361 C118.644833,248.395 118.8545,248.460167 119.0415,248.5565 C119.2285,248.652833 119.3815,248.788833 119.5005,248.9645 C119.6195,249.140167 119.679,249.369667 119.679,249.653 C119.679,249.959 119.613833,250.208333 119.4835,250.401 C119.353167,250.593667 119.186,250.741 118.982,250.843 C118.778,250.945 118.551333,251.015833 118.302,251.0555 C118.052667,251.095167 117.809,251.115 117.571,251.115 L117.571,251.115 Z M128.706,258.272 C129.567333,258.272 130.323833,258.116167 130.9755,257.8045 C131.627167,257.492833 132.151333,257.048 132.548,256.47 L132.548,256.47 L130.61,255.246 C130.417333,255.506667 130.168,255.719167 129.862,255.8835 C129.556,256.047833 129.182,256.13 128.74,256.13 C128.490667,256.13 128.249833,256.090333 128.0175,256.011 C127.785167,255.931667 127.5755,255.821167 127.3885,255.6795 C127.2015,255.537833 127.0485,255.370667 126.9295,255.178 C126.8105,254.985333 126.739667,254.77 126.717,254.532 L126.717,254.532 L132.854,254.532 C132.865333,254.43 132.871,254.322333 132.871,254.209 L132.871,254.209 L132.871,253.869 C132.871,253.143667 132.766167,252.497667 132.5565,251.931 C132.346833,251.364333 132.055,250.882667 131.681,250.486 C131.307,250.089333 130.859333,249.786167 130.338,249.5765 C129.816667,249.366833 129.244333,249.262 128.621,249.262 C127.975,249.262 127.374333,249.369667 126.819,249.585 C126.263667,249.800333 125.782,250.1035 125.374,250.4945 C124.966,250.8855 124.643,251.3615 124.405,251.9225 C124.167,252.4835 124.048,253.109667 124.048,253.801 C124.048,254.515 124.169833,255.149667 124.4135,255.705 C124.657167,256.260333 124.9915,256.727833 125.4165,257.1075 C125.8415,257.487167 126.337333,257.776167 126.904,257.9745 C127.470667,258.172833 128.071333,258.272 128.706,258.272 Z M130.304,252.798 L126.717,252.798 C126.728333,252.582667 126.785,252.375833 126.887,252.1775 C126.989,251.979167 127.125,251.806333 127.295,251.659 C127.465,251.511667 127.663333,251.3955 127.89,251.3105 C128.116667,251.2255 128.366,251.183 128.638,251.183 C129.193333,251.183 129.609833,251.341667 129.8875,251.659 C130.165167,251.976333 130.304,252.356 130.304,252.798 L130.304,252.798 Z M137.393,258.272 C137.823667,258.272 138.254333,258.221 138.685,258.119 C139.115667,258.017 139.503833,257.852667 139.8495,257.626 C140.195167,257.399333 140.475667,257.101833 140.691,256.7335 C140.906333,256.365167 141.014,255.914667 141.014,255.382 C141.014,254.974 140.934667,254.622667 140.776,254.328 C140.617333,254.033333 140.407667,253.784 140.147,253.58 C139.886333,253.376 139.5945,253.211667 139.2715,253.087 C138.9485,252.962333 138.628333,252.866 138.311,252.798 C137.767,252.673333 137.373167,252.56 137.1295,252.458 C136.885833,252.356 136.764,252.186 136.764,251.948 C136.764,251.698667 136.8745,251.523 137.0955,251.421 C137.3165,251.319 137.557333,251.268 137.818,251.268 C138.158,251.268 138.481,251.341667 138.787,251.489 C139.093,251.636333 139.359333,251.817667 139.586,252.033 L139.586,252.033 L141.116,250.452 C140.696667,250.055333 140.183833,249.757833 139.5775,249.5595 C138.971167,249.361167 138.350667,249.262 137.716,249.262 C137.308,249.262 136.897167,249.315833 136.4835,249.4235 C136.069833,249.531167 135.693,249.698333 135.353,249.925 C135.013,250.151667 134.735333,250.4435 134.52,250.8005 C134.304667,251.1575 134.197,251.591 134.197,252.101 C134.197,252.497667 134.270667,252.837667 134.418,253.121 C134.565333,253.404333 134.755167,253.642333 134.9875,253.835 C135.219833,254.027667 135.483333,254.180667 135.778,254.294 C136.072667,254.407333 136.367333,254.498 136.662,254.566 C137.24,254.702 137.665,254.832333 137.937,254.957 C138.209,255.081667 138.345,255.274333 138.345,255.535 C138.345,255.807 138.2345,255.996833 138.0135,256.1045 C137.7925,256.212167 137.568667,256.266 137.342,256.266 C136.934,256.266 136.548667,256.175333 136.186,255.994 C135.823333,255.812667 135.517333,255.586 135.268,255.314 L135.268,255.314 L133.704,256.963 C134.146,257.393667 134.6985,257.7195 135.3615,257.9405 C136.0245,258.1615 136.701667,258.272 137.393,258.272 Z M145.621,258.238 C145.915667,258.238 146.196167,258.198333 146.4625,258.119 C146.728833,258.039667 146.9725,257.937667 147.1935,257.813 C147.4145,257.688333 147.607167,257.541 147.7715,257.371 C147.935833,257.201 148.069,257.019667 148.171,256.827 L148.171,256.827 L148.205,256.827 L148.205,258 L150.891,258 L150.891,249.534 L148.103,249.534 L148.103,254.107 C148.103,254.594333 147.9755,255.019333 147.7205,255.382 C147.4655,255.744667 147.094333,255.926 146.607,255.926 C146.346333,255.926 146.136667,255.877833 145.978,255.7815 C145.819333,255.685167 145.691833,255.552 145.5955,255.382 C145.499167,255.212 145.434,255.019333 145.4,254.804 C145.366,254.588667 145.349,254.362 145.349,254.124 L145.349,254.124 L145.349,249.534 L142.544,249.534 L142.544,254.77 C142.544,255.200667 142.597833,255.622833 142.7055,256.0365 C142.813167,256.450167 142.988833,256.8185 143.2325,257.1415 C143.476167,257.4645 143.7935,257.728 144.1845,257.932 C144.5755,258.136 145.054333,258.238 145.621,258.238 Z M155.923,258 L155.923,245.148 L153.101,245.148 L153.101,258 L155.923,258 Z M161.448,258.204 C161.742667,258.204 162.037333,258.1785 162.332,258.1275 C162.626667,258.0765 162.870333,258.017 163.063,257.949 L163.063,257.949 L163.029,255.909 C162.927,255.954333 162.7995,255.988333 162.6465,256.011 C162.4935,256.033667 162.349,256.045 162.213,256.045 C161.816333,256.045 161.5415,255.945833 161.3885,255.7475 C161.2355,255.549167 161.159,255.251667 161.159,254.855 L161.159,254.855 L161.159,251.625 L163.148,251.625 L163.148,249.534 L161.159,249.534 L161.159,247.307 L158.422,247.307 L158.422,249.534 L157.079,249.534 L157.079,251.625 L158.439,251.625 L158.439,255.195 C158.439,255.648333 158.49,256.059167 158.592,256.4275 C158.694,256.795833 158.861167,257.113167 159.0935,257.3795 C159.325833,257.645833 159.634667,257.849833 160.02,257.9915 C160.405333,258.133167 160.881333,258.204 161.448,258.204 Z M167.245,258.272 C167.675667,258.272 168.106333,258.221 168.537,258.119 C168.967667,258.017 169.355833,257.852667 169.7015,257.626 C170.047167,257.399333 170.327667,257.101833 170.543,256.7335 C170.758333,256.365167 170.866,255.914667 170.866,255.382 C170.866,254.974 170.786667,254.622667 170.628,254.328 C170.469333,254.033333 170.259667,253.784 169.999,253.58 C169.738333,253.376 169.4465,253.211667 169.1235,253.087 C168.8005,252.962333 168.480333,252.866 168.163,252.798 C167.619,252.673333 167.225167,252.56 166.9815,252.458 C166.737833,252.356 166.616,252.186 166.616,251.948 C166.616,251.698667 166.7265,251.523 166.9475,251.421 C167.1685,251.319 167.409333,251.268 167.67,251.268 C168.01,251.268 168.333,251.341667 168.639,251.489 C168.945,251.636333 169.211333,251.817667 169.438,252.033 L169.438,252.033 L170.968,250.452 C170.548667,250.055333 170.035833,249.757833 169.4295,249.5595 C168.823167,249.361167 168.202667,249.262 167.568,249.262 C167.16,249.262 166.749167,249.315833 166.3355,249.4235 C165.921833,249.531167 165.545,249.698333 165.205,249.925 C164.865,250.151667 164.587333,250.4435 164.372,250.8005 C164.156667,251.1575 164.049,251.591 164.049,252.101 C164.049,252.497667 164.122667,252.837667 164.27,253.121 C164.417333,253.404333 164.607167,253.642333 164.8395,253.835 C165.071833,254.027667 165.335333,254.180667 165.63,254.294 C165.924667,254.407333 166.219333,254.498 166.514,254.566 C167.092,254.702 167.517,254.832333 167.789,254.957 C168.061,255.081667 168.197,255.274333 168.197,255.535 C168.197,255.807 168.0865,255.996833 167.8655,256.1045 C167.6445,256.212167 167.420667,256.266 167.194,256.266 C166.786,256.266 166.400667,256.175333 166.038,255.994 C165.675333,255.812667 165.369333,255.586 165.12,255.314 L165.12,255.314 L163.556,256.963 C163.998,257.393667 164.5505,257.7195 165.2135,257.9405 C165.8765,258.1615 166.553667,258.272 167.245,258.272 Z M173.96,258.17 C174.424667,258.17 174.824167,258.011333 175.1585,257.694 C175.492833,257.376667 175.66,256.98 175.66,256.504 C175.66,256.028 175.492833,255.631333 175.1585,255.314 C174.824167,254.996667 174.424667,254.838 173.96,254.838 C173.722,254.838 173.498167,254.883333 173.2885,254.974 C173.078833,255.064667 172.894667,255.1865 172.736,255.3395 C172.577333,255.4925 172.452667,255.671 172.362,255.875 C172.271333,256.079 172.226,256.294333 172.226,256.521 C172.226,256.759 172.271333,256.977167 172.362,257.1755 C172.452667,257.373833 172.577333,257.546667 172.736,257.694 C172.894667,257.841333 173.078833,257.9575 173.2885,258.0425 C173.498167,258.1275 173.722,258.17 173.96,258.17 Z" id="Found5Results." fill="#222222" fill-rule="nonzero"></path>
                <rect id="Rectangle" fill="#5D3AEF" x="40" y="199" width="49" height="20" rx="3"></rect>
                <path d="M52.28,212.18 C52.8,212.18 53.28,212.126667 53.72,212.02 C54.16,211.913333 54.5666667,211.76 54.94,211.56 L54.94,211.56 L54.94,208.13 L52.39,208.13 L52.39,208.97 L53.96,208.97 L53.96,210.94 C53.7533333,211.053333 53.51,211.14 53.23,211.2 C52.95,211.26 52.6433333,211.29 52.31,211.29 C51.89,211.29 51.51,211.216667 51.17,211.07 C50.83,210.923333 50.5433333,210.721667 50.31,210.465 C50.0766667,210.208333 49.8966667,209.906667 49.77,209.56 C49.6433333,209.213333 49.58,208.843333 49.58,208.45 C49.58,208.063333 49.6433333,207.698333 49.77,207.355 C49.8966667,207.011667 50.0766667,206.71 50.31,206.45 C50.5433333,206.19 50.8266667,205.985 51.16,205.835 C51.4933333,205.685 51.8666667,205.61 52.28,205.61 C52.6866667,205.61 53.055,205.68 53.385,205.82 C53.715,205.96 53.9866667,206.146667 54.2,206.38 L54.2,206.38 L54.89,205.66 C54.5966667,205.38 54.2283333,205.156667 53.785,204.99 C53.3416667,204.823333 52.8366667,204.74 52.27,204.74 C51.73,204.74 51.23,204.83 50.77,205.01 C50.31,205.19 49.9116667,205.441667 49.575,205.765 C49.2383333,206.088333 48.975,206.478333 48.785,206.935 C48.595,207.391667 48.5,207.896667 48.5,208.45 C48.5,208.996667 48.5933333,209.498333 48.78,209.955 C48.9666667,210.411667 49.2266667,210.805 49.56,211.135 C49.8933333,211.465 50.2916667,211.721667 50.755,211.905 C51.2183333,212.088333 51.7266667,212.18 52.28,212.18 Z M57.07,206.15 C57.2433333,206.15 57.3916667,206.093333 57.515,205.98 C57.6383333,205.866667 57.7,205.723333 57.7,205.55 C57.7,205.376667 57.6383333,205.231667 57.515,205.115 C57.3916667,204.998333 57.2433333,204.94 57.07,204.94 C56.8966667,204.94 56.75,204.998333 56.63,205.115 C56.51,205.231667 56.45,205.376667 56.45,205.55 C56.45,205.716667 56.51,205.858333 56.63,205.975 C56.75,206.091667 56.8966667,206.15 57.07,206.15 Z M57.54,212 L57.54,207.26 L56.6,207.26 L56.6,212 L57.54,212 Z M61.84,212.13 C62.2066667,212.13 62.5366667,212.065 62.83,211.935 C63.1233333,211.805 63.3733333,211.626667 63.58,211.4 C63.7866667,211.173333 63.9466667,210.906667 64.06,210.6 C64.1733333,210.293333 64.23,209.966667 64.23,209.62 C64.23,209.273333 64.1733333,208.948333 64.06,208.645 C63.9466667,208.341667 63.785,208.076667 63.575,207.85 C63.365,207.623333 63.115,207.446667 62.825,207.32 C62.535,207.193333 62.2133333,207.13 61.86,207.13 C61.4666667,207.13 61.1266667,207.211667 60.84,207.375 C60.5533333,207.538333 60.33,207.736667 60.17,207.97 L60.17,207.97 L60.14,207.97 L60.14,204.44 L59.2,204.44 L59.2,212 L60.11,212 L60.11,211.25 L60.13,211.25 C60.3166667,211.536667 60.5633333,211.755 60.87,211.905 C61.1766667,212.055 61.5,212.13 61.84,212.13 Z M61.68,211.34 C61.44,211.34 61.2216667,211.293333 61.025,211.2 C60.8283333,211.106667 60.66,210.981667 60.52,210.825 C60.38,210.668333 60.2716667,210.486667 60.195,210.28 C60.1183333,210.073333 60.08,209.856667 60.08,209.63 C60.08,209.403333 60.1183333,209.186667 60.195,208.98 C60.2716667,208.773333 60.38,208.59 60.52,208.43 C60.66,208.27 60.8283333,208.143333 61.025,208.05 C61.2216667,207.956667 61.44,207.91 61.68,207.91 C61.94,207.91 62.1683333,207.956667 62.365,208.05 C62.5616667,208.143333 62.7266667,208.27 62.86,208.43 C62.9933333,208.59 63.0933333,208.773333 63.16,208.98 C63.2266667,209.186667 63.26,209.4 63.26,209.62 C63.26,209.84 63.2266667,210.053333 63.16,210.26 C63.0933333,210.466667 62.9933333,210.65 62.86,210.81 C62.7266667,210.97 62.5616667,211.098333 62.365,211.195 C62.1683333,211.291667 61.94,211.34 61.68,211.34 Z M66.9,212.13 C67.14,212.13 67.3733333,212.103333 67.6,212.05 C67.8266667,211.996667 68.0283333,211.908333 68.205,211.785 C68.3816667,211.661667 68.5233333,211.503333 68.63,211.31 C68.7366667,211.116667 68.79,210.88 68.79,210.6 C68.79,210.393333 68.75,210.213333 68.67,210.06 C68.59,209.906667 68.4783333,209.775 68.335,209.665 C68.1916667,209.555 68.0233333,209.463333 67.83,209.39 C67.6366667,209.316667 67.4266667,209.253333 67.2,209.2 C66.84,209.12 66.57,209.031667 66.39,208.935 C66.21,208.838333 66.12,208.69 66.12,208.49 C66.12,208.376667 66.145,208.281667 66.195,208.205 C66.245,208.128333 66.3116667,208.065 66.395,208.015 C66.4783333,207.965 66.5733333,207.928333 66.68,207.905 C66.7866667,207.881667 66.8933333,207.87 67,207.87 C67.24,207.87 67.4566667,207.925 67.65,208.035 C67.8433333,208.145 67.9933333,208.286667 68.1,208.46 L68.1,208.46 L68.75,207.91 C68.5766667,207.656667 68.3316667,207.463333 68.015,207.33 C67.6983333,207.196667 67.37,207.13 67.03,207.13 C66.8033333,207.13 66.5833333,207.158333 66.37,207.215 C66.1566667,207.271667 65.9666667,207.358333 65.8,207.475 C65.6333333,207.591667 65.4983333,207.741667 65.395,207.925 C65.2916667,208.108333 65.24,208.326667 65.24,208.58 C65.24,208.8 65.2816667,208.985 65.365,209.135 C65.4483333,209.285 65.5566667,209.41 65.69,209.51 C65.8233333,209.61 65.9716667,209.688333 66.135,209.745 C66.2983333,209.801667 66.46,209.85 66.62,209.89 C67.0266667,209.983333 67.335,210.083333 67.545,210.19 C67.755,210.296667 67.86,210.46 67.86,210.68 C67.86,210.813333 67.8333333,210.923333 67.78,211.01 C67.7266667,211.096667 67.655,211.166667 67.565,211.22 C67.475,211.273333 67.375,211.311667 67.265,211.335 C67.155,211.358333 67.04,211.37 66.92,211.37 C66.6533333,211.37 66.4083333,211.306667 66.185,211.18 C65.9616667,211.053333 65.7866667,210.896667 65.66,210.71 L65.66,210.71 L64.99,211.28 C65.2166667,211.566667 65.5016667,211.78 65.845,211.92 C66.1883333,212.06 66.54,212.13 66.9,212.13 Z M72.22,212.13 C72.58,212.13 72.9166667,212.068333 73.23,211.945 C73.5433333,211.821667 73.815,211.648333 74.045,211.425 C74.275,211.201667 74.455,210.936667 74.585,210.63 C74.715,210.323333 74.78,209.986667 74.78,209.62 C74.78,209.253333 74.715,208.918333 74.585,208.615 C74.455,208.311667 74.275,208.05 74.045,207.83 C73.815,207.61 73.5433333,207.438333 73.23,207.315 C72.9166667,207.191667 72.58,207.13 72.22,207.13 C71.86,207.13 71.5233333,207.191667 71.21,207.315 C70.8966667,207.438333 70.6266667,207.61 70.4,207.83 C70.1733333,208.05 69.995,208.311667 69.865,208.615 C69.735,208.918333 69.67,209.253333 69.67,209.62 C69.67,209.986667 69.735,210.323333 69.865,210.63 C69.995,210.936667 70.1733333,211.201667 70.4,211.425 C70.6266667,211.648333 70.8966667,211.821667 71.21,211.945 C71.5233333,212.068333 71.86,212.13 72.22,212.13 Z M72.22,211.34 C71.9666667,211.34 71.7416667,211.293333 71.545,211.2 C71.3483333,211.106667 71.1833333,210.98 71.05,210.82 C70.9166667,210.66 70.815,210.476667 70.745,210.27 C70.675,210.063333 70.64,209.846667 70.64,209.62 C70.64,209.393333 70.675,209.176667 70.745,208.97 C70.815,208.763333 70.9166667,208.581667 71.05,208.425 C71.1833333,208.268333 71.3483333,208.143333 71.545,208.05 C71.7416667,207.956667 71.9666667,207.91 72.22,207.91 C72.4733333,207.91 72.6983333,207.956667 72.895,208.05 C73.0916667,208.143333 73.2566667,208.268333 73.39,208.425 C73.5233333,208.581667 73.625,208.763333 73.695,208.97 C73.765,209.176667 73.8,209.393333 73.8,209.62 C73.8,209.846667 73.765,210.063333 73.695,210.27 C73.625,210.476667 73.5233333,210.66 73.39,210.82 C73.2566667,210.98 73.0916667,211.106667 72.895,211.2 C72.6983333,211.293333 72.4733333,211.34 72.22,211.34 Z M77.02,212 L77.02,209.48 C77.02,209.006667 77.1383333,208.628333 77.375,208.345 C77.6116667,208.061667 77.9166667,207.92 78.29,207.92 C78.51,207.92 78.69,207.96 78.83,208.04 C78.97,208.12 79.08,208.226667 79.16,208.36 C79.24,208.493333 79.295,208.646667 79.325,208.82 C79.355,208.993333 79.37,209.176667 79.37,209.37 L79.37,209.37 L79.37,212 L80.31,212 L80.31,209.06 C80.31,208.793333 80.275,208.543333 80.205,208.31 C80.135,208.076667 80.0266667,207.873333 79.88,207.7 C79.7333333,207.526667 79.55,207.388333 79.33,207.285 C79.11,207.181667 78.8466667,207.13 78.54,207.13 C78.3666667,207.13 78.2,207.153333 78.04,207.2 C77.88,207.246667 77.7333333,207.311667 77.6,207.395 C77.4666667,207.478333 77.3483333,207.575 77.245,207.685 C77.1416667,207.795 77.06,207.913333 77,208.04 L77,208.04 L76.97,208.04 C76.97,207.94 76.9666667,207.815 76.96,207.665 C76.9533333,207.515 76.9433333,207.38 76.93,207.26 L76.93,207.26 L76.04,207.26 C76.0533333,207.413333 76.0633333,207.59 76.07,207.79 C76.0766667,207.99 76.08,208.153333 76.08,208.28 L76.08,208.28 L76.08,212 L77.02,212 Z" id="Gibson" fill="#FFFFFF" fill-rule="nonzero"></path>
                <rect id="Rectangle" fill="#5D3AEF" x="96" y="199" width="74" height="20" rx="3"></rect>
                <path d="M108.28,212.18 C108.8,212.18 109.28,212.126667 109.72,212.02 C110.16,211.913333 110.566667,211.76 110.94,211.56 L110.94,211.56 L110.94,208.13 L108.39,208.13 L108.39,208.97 L109.96,208.97 L109.96,210.94 C109.753333,211.053333 109.51,211.14 109.23,211.2 C108.95,211.26 108.643333,211.29 108.31,211.29 C107.89,211.29 107.51,211.216667 107.17,211.07 C106.83,210.923333 106.543333,210.721667 106.31,210.465 C106.076667,210.208333 105.896667,209.906667 105.77,209.56 C105.643333,209.213333 105.58,208.843333 105.58,208.45 C105.58,208.063333 105.643333,207.698333 105.77,207.355 C105.896667,207.011667 106.076667,206.71 106.31,206.45 C106.543333,206.19 106.826667,205.985 107.16,205.835 C107.493333,205.685 107.866667,205.61 108.28,205.61 C108.686667,205.61 109.055,205.68 109.385,205.82 C109.715,205.96 109.986667,206.146667 110.2,206.38 L110.2,206.38 L110.89,205.66 C110.596667,205.38 110.228333,205.156667 109.785,204.99 C109.341667,204.823333 108.836667,204.74 108.27,204.74 C107.73,204.74 107.23,204.83 106.77,205.01 C106.31,205.19 105.911667,205.441667 105.575,205.765 C105.238333,206.088333 104.975,206.478333 104.785,206.935 C104.595,207.391667 104.5,207.896667 104.5,208.45 C104.5,208.996667 104.593333,209.498333 104.78,209.955 C104.966667,210.411667 105.226667,210.805 105.56,211.135 C105.893333,211.465 106.291667,211.721667 106.755,211.905 C107.218333,212.088333 107.726667,212.18 108.28,212.18 Z M113.07,206.15 C113.243333,206.15 113.391667,206.093333 113.515,205.98 C113.638333,205.866667 113.7,205.723333 113.7,205.55 C113.7,205.376667 113.638333,205.231667 113.515,205.115 C113.391667,204.998333 113.243333,204.94 113.07,204.94 C112.896667,204.94 112.75,204.998333 112.63,205.115 C112.51,205.231667 112.45,205.376667 112.45,205.55 C112.45,205.716667 112.51,205.858333 112.63,205.975 C112.75,206.091667 112.896667,206.15 113.07,206.15 Z M113.54,212 L113.54,207.26 L112.6,207.26 L112.6,212 L113.54,212 Z M117.84,212.13 C118.206667,212.13 118.536667,212.065 118.83,211.935 C119.123333,211.805 119.373333,211.626667 119.58,211.4 C119.786667,211.173333 119.946667,210.906667 120.06,210.6 C120.173333,210.293333 120.23,209.966667 120.23,209.62 C120.23,209.273333 120.173333,208.948333 120.06,208.645 C119.946667,208.341667 119.785,208.076667 119.575,207.85 C119.365,207.623333 119.115,207.446667 118.825,207.32 C118.535,207.193333 118.213333,207.13 117.86,207.13 C117.466667,207.13 117.126667,207.211667 116.84,207.375 C116.553333,207.538333 116.33,207.736667 116.17,207.97 L116.17,207.97 L116.14,207.97 L116.14,204.44 L115.2,204.44 L115.2,212 L116.11,212 L116.11,211.25 L116.13,211.25 C116.316667,211.536667 116.563333,211.755 116.87,211.905 C117.176667,212.055 117.5,212.13 117.84,212.13 Z M117.68,211.34 C117.44,211.34 117.221667,211.293333 117.025,211.2 C116.828333,211.106667 116.66,210.981667 116.52,210.825 C116.38,210.668333 116.271667,210.486667 116.195,210.28 C116.118333,210.073333 116.08,209.856667 116.08,209.63 C116.08,209.403333 116.118333,209.186667 116.195,208.98 C116.271667,208.773333 116.38,208.59 116.52,208.43 C116.66,208.27 116.828333,208.143333 117.025,208.05 C117.221667,207.956667 117.44,207.91 117.68,207.91 C117.94,207.91 118.168333,207.956667 118.365,208.05 C118.561667,208.143333 118.726667,208.27 118.86,208.43 C118.993333,208.59 119.093333,208.773333 119.16,208.98 C119.226667,209.186667 119.26,209.4 119.26,209.62 C119.26,209.84 119.226667,210.053333 119.16,210.26 C119.093333,210.466667 118.993333,210.65 118.86,210.81 C118.726667,210.97 118.561667,211.098333 118.365,211.195 C118.168333,211.291667 117.94,211.34 117.68,211.34 Z M122.9,212.13 C123.14,212.13 123.373333,212.103333 123.6,212.05 C123.826667,211.996667 124.028333,211.908333 124.205,211.785 C124.381667,211.661667 124.523333,211.503333 124.63,211.31 C124.736667,211.116667 124.79,210.88 124.79,210.6 C124.79,210.393333 124.75,210.213333 124.67,210.06 C124.59,209.906667 124.478333,209.775 124.335,209.665 C124.191667,209.555 124.023333,209.463333 123.83,209.39 C123.636667,209.316667 123.426667,209.253333 123.2,209.2 C122.84,209.12 122.57,209.031667 122.39,208.935 C122.21,208.838333 122.12,208.69 122.12,208.49 C122.12,208.376667 122.145,208.281667 122.195,208.205 C122.245,208.128333 122.311667,208.065 122.395,208.015 C122.478333,207.965 122.573333,207.928333 122.68,207.905 C122.786667,207.881667 122.893333,207.87 123,207.87 C123.24,207.87 123.456667,207.925 123.65,208.035 C123.843333,208.145 123.993333,208.286667 124.1,208.46 L124.1,208.46 L124.75,207.91 C124.576667,207.656667 124.331667,207.463333 124.015,207.33 C123.698333,207.196667 123.37,207.13 123.03,207.13 C122.803333,207.13 122.583333,207.158333 122.37,207.215 C122.156667,207.271667 121.966667,207.358333 121.8,207.475 C121.633333,207.591667 121.498333,207.741667 121.395,207.925 C121.291667,208.108333 121.24,208.326667 121.24,208.58 C121.24,208.8 121.281667,208.985 121.365,209.135 C121.448333,209.285 121.556667,209.41 121.69,209.51 C121.823333,209.61 121.971667,209.688333 122.135,209.745 C122.298333,209.801667 122.46,209.85 122.62,209.89 C123.026667,209.983333 123.335,210.083333 123.545,210.19 C123.755,210.296667 123.86,210.46 123.86,210.68 C123.86,210.813333 123.833333,210.923333 123.78,211.01 C123.726667,211.096667 123.655,211.166667 123.565,211.22 C123.475,211.273333 123.375,211.311667 123.265,211.335 C123.155,211.358333 123.04,211.37 122.92,211.37 C122.653333,211.37 122.408333,211.306667 122.185,211.18 C121.961667,211.053333 121.786667,210.896667 121.66,210.71 L121.66,210.71 L120.99,211.28 C121.216667,211.566667 121.501667,211.78 121.845,211.92 C122.188333,212.06 122.54,212.13 122.9,212.13 Z M128.22,212.13 C128.58,212.13 128.916667,212.068333 129.23,211.945 C129.543333,211.821667 129.815,211.648333 130.045,211.425 C130.275,211.201667 130.455,210.936667 130.585,210.63 C130.715,210.323333 130.78,209.986667 130.78,209.62 C130.78,209.253333 130.715,208.918333 130.585,208.615 C130.455,208.311667 130.275,208.05 130.045,207.83 C129.815,207.61 129.543333,207.438333 129.23,207.315 C128.916667,207.191667 128.58,207.13 128.22,207.13 C127.86,207.13 127.523333,207.191667 127.21,207.315 C126.896667,207.438333 126.626667,207.61 126.4,207.83 C126.173333,208.05 125.995,208.311667 125.865,208.615 C125.735,208.918333 125.67,209.253333 125.67,209.62 C125.67,209.986667 125.735,210.323333 125.865,210.63 C125.995,210.936667 126.173333,211.201667 126.4,211.425 C126.626667,211.648333 126.896667,211.821667 127.21,211.945 C127.523333,212.068333 127.86,212.13 128.22,212.13 Z M128.22,211.34 C127.966667,211.34 127.741667,211.293333 127.545,211.2 C127.348333,211.106667 127.183333,210.98 127.05,210.82 C126.916667,210.66 126.815,210.476667 126.745,210.27 C126.675,210.063333 126.64,209.846667 126.64,209.62 C126.64,209.393333 126.675,209.176667 126.745,208.97 C126.815,208.763333 126.916667,208.581667 127.05,208.425 C127.183333,208.268333 127.348333,208.143333 127.545,208.05 C127.741667,207.956667 127.966667,207.91 128.22,207.91 C128.473333,207.91 128.698333,207.956667 128.895,208.05 C129.091667,208.143333 129.256667,208.268333 129.39,208.425 C129.523333,208.581667 129.625,208.763333 129.695,208.97 C129.765,209.176667 129.8,209.393333 129.8,209.62 C129.8,209.846667 129.765,210.063333 129.695,210.27 C129.625,210.476667 129.523333,210.66 129.39,210.82 C129.256667,210.98 129.091667,211.106667 128.895,211.2 C128.698333,211.293333 128.473333,211.34 128.22,211.34 Z M133.02,212 L133.02,209.48 C133.02,209.006667 133.138333,208.628333 133.375,208.345 C133.611667,208.061667 133.916667,207.92 134.29,207.92 C134.51,207.92 134.69,207.96 134.83,208.04 C134.97,208.12 135.08,208.226667 135.16,208.36 C135.24,208.493333 135.295,208.646667 135.325,208.82 C135.355,208.993333 135.37,209.176667 135.37,209.37 L135.37,209.37 L135.37,212 L136.31,212 L136.31,209.06 C136.31,208.793333 136.275,208.543333 136.205,208.31 C136.135,208.076667 136.026667,207.873333 135.88,207.7 C135.733333,207.526667 135.55,207.388333 135.33,207.285 C135.11,207.181667 134.846667,207.13 134.54,207.13 C134.366667,207.13 134.2,207.153333 134.04,207.2 C133.88,207.246667 133.733333,207.311667 133.6,207.395 C133.466667,207.478333 133.348333,207.575 133.245,207.685 C133.141667,207.795 133.06,207.913333 133,208.04 L133,208.04 L132.97,208.04 C132.97,207.94 132.966667,207.815 132.96,207.665 C132.953333,207.515 132.943333,207.38 132.93,207.26 L132.93,207.26 L132.04,207.26 C132.053333,207.413333 132.063333,207.59 132.07,207.79 C132.076667,207.99 132.08,208.153333 132.08,208.28 L132.08,208.28 L132.08,212 L133.02,212 Z M143.87,212.18 C144.39,212.18 144.87,212.126667 145.31,212.02 C145.75,211.913333 146.156667,211.76 146.53,211.56 L146.53,211.56 L146.53,208.13 L143.98,208.13 L143.98,208.97 L145.55,208.97 L145.55,210.94 C145.343333,211.053333 145.1,211.14 144.82,211.2 C144.54,211.26 144.233333,211.29 143.9,211.29 C143.48,211.29 143.1,211.216667 142.76,211.07 C142.42,210.923333 142.133333,210.721667 141.9,210.465 C141.666667,210.208333 141.486667,209.906667 141.36,209.56 C141.233333,209.213333 141.17,208.843333 141.17,208.45 C141.17,208.063333 141.233333,207.698333 141.36,207.355 C141.486667,207.011667 141.666667,206.71 141.9,206.45 C142.133333,206.19 142.416667,205.985 142.75,205.835 C143.083333,205.685 143.456667,205.61 143.87,205.61 C144.276667,205.61 144.645,205.68 144.975,205.82 C145.305,205.96 145.576667,206.146667 145.79,206.38 L145.79,206.38 L146.48,205.66 C146.186667,205.38 145.818333,205.156667 145.375,204.99 C144.931667,204.823333 144.426667,204.74 143.86,204.74 C143.32,204.74 142.82,204.83 142.36,205.01 C141.9,205.19 141.501667,205.441667 141.165,205.765 C140.828333,206.088333 140.565,206.478333 140.375,206.935 C140.185,207.391667 140.09,207.896667 140.09,208.45 C140.09,208.996667 140.183333,209.498333 140.37,209.955 C140.556667,210.411667 140.816667,210.805 141.15,211.135 C141.483333,211.465 141.881667,211.721667 142.345,211.905 C142.808333,212.088333 143.316667,212.18 143.87,212.18 Z M150.37,212.13 C150.79,212.13 151.171667,212.051667 151.515,211.895 C151.858333,211.738333 152.156667,211.493333 152.41,211.16 L152.41,211.16 L151.75,210.63 C151.616667,210.83 151.433333,211 151.2,211.14 C150.966667,211.28 150.69,211.35 150.37,211.35 C150.163333,211.35 149.968333,211.313333 149.785,211.24 C149.601667,211.166667 149.44,211.065 149.3,210.935 C149.16,210.805 149.048333,210.651667 148.965,210.475 C148.881667,210.298333 148.836667,210.11 148.83,209.91 L148.83,209.91 L152.59,209.91 C152.596667,209.856667 152.6,209.803333 152.6,209.75 L152.6,209.75 L152.6,209.59 C152.6,209.21 152.546667,208.868333 152.44,208.565 C152.333333,208.261667 152.181667,208.003333 151.985,207.79 C151.788333,207.576667 151.548333,207.413333 151.265,207.3 C150.981667,207.186667 150.666667,207.13 150.32,207.13 C149.973333,207.13 149.65,207.191667 149.35,207.315 C149.05,207.438333 148.79,207.61 148.57,207.83 C148.35,208.05 148.178333,208.315 148.055,208.625 C147.931667,208.935 147.87,209.273333 147.87,209.64 C147.87,210.013333 147.933333,210.353333 148.06,210.66 C148.186667,210.966667 148.36,211.228333 148.58,211.445 C148.8,211.661667 149.063333,211.83 149.37,211.95 C149.676667,212.07 150.01,212.13 150.37,212.13 Z M151.65,209.21 L148.83,209.21 C148.843333,209.023333 148.891667,208.848333 148.975,208.685 C149.058333,208.521667 149.165,208.38 149.295,208.26 C149.425,208.14 149.578333,208.045 149.755,207.975 C149.931667,207.905 150.12,207.87 150.32,207.87 C150.54,207.87 150.731667,207.905 150.895,207.975 C151.058333,208.045 151.195,208.14 151.305,208.26 C151.415,208.38 151.498333,208.521667 151.555,208.685 C151.611667,208.848333 151.643333,209.023333 151.65,209.21 L151.65,209.21 Z M155.28,212.12 C155.64,212.12 155.951667,212.05 156.215,211.91 C156.478333,211.77 156.696667,211.573333 156.87,211.32 L156.87,211.32 L156.9,211.32 C156.9,211.546667 156.926667,211.773333 156.98,212 L156.98,212 L157.83,212 C157.803333,211.886667 157.785,211.741667 157.775,211.565 C157.765,211.388333 157.76,211.22 157.76,211.06 L157.76,211.06 L157.76,208.99 C157.76,208.73 157.72,208.486667 157.64,208.26 C157.56,208.033333 157.44,207.836667 157.28,207.67 C157.12,207.503333 156.915,207.371667 156.665,207.275 C156.415,207.178333 156.12,207.13 155.78,207.13 C155.393333,207.13 155.031667,207.193333 154.695,207.32 C154.358333,207.446667 154.073333,207.62 153.84,207.84 L153.84,207.84 L154.34,208.44 C154.5,208.28 154.698333,208.148333 154.935,208.045 C155.171667,207.941667 155.423333,207.89 155.69,207.89 C156.043333,207.89 156.326667,207.975 156.54,208.145 C156.753333,208.315 156.86,208.576667 156.86,208.93 L156.86,208.93 L156.86,209.06 C156.46,209.06 156.063333,209.076667 155.67,209.11 C155.276667,209.143333 154.923333,209.215 154.61,209.325 C154.296667,209.435 154.043333,209.595 153.85,209.805 C153.656667,210.015 153.56,210.3 153.56,210.66 C153.56,210.933333 153.615,211.163333 153.725,211.35 C153.835,211.536667 153.973333,211.686667 154.14,211.8 C154.306667,211.913333 154.491667,211.995 154.695,212.045 C154.898333,212.095 155.093333,212.12 155.28,212.12 Z M155.49,211.38 C155.37,211.38 155.253333,211.368333 155.14,211.345 C155.026667,211.321667 154.923333,211.28 154.83,211.22 C154.736667,211.16 154.661667,211.083333 154.605,210.99 C154.548333,210.896667 154.52,210.78 154.52,210.64 C154.52,210.44 154.586667,210.28 154.72,210.16 C154.853333,210.04 155.021667,209.95 155.225,209.89 C155.428333,209.83 155.655,209.79 155.905,209.77 C156.155,209.75 156.396667,209.74 156.63,209.74 L156.63,209.74 L156.86,209.74 L156.86,209.99 C156.86,210.39 156.741667,210.721667 156.505,210.985 C156.268333,211.248333 155.93,211.38 155.49,211.38 Z M160.27,212 L160.27,209.51 C160.27,209.31 160.296667,209.118333 160.35,208.935 C160.403333,208.751667 160.485,208.59 160.595,208.45 C160.705,208.31 160.843333,208.198333 161.01,208.115 C161.176667,208.031667 161.373333,207.99 161.6,207.99 C161.753333,207.99 161.896667,208.006667 162.03,208.04 L162.03,208.04 L162.07,207.17 C161.97,207.143333 161.846667,207.13 161.7,207.13 C161.38,207.13 161.091667,207.215 160.835,207.385 C160.578333,207.555 160.383333,207.78 160.25,208.06 L160.25,208.06 L160.22,208.06 C160.22,207.96 160.216667,207.831667 160.21,207.675 C160.203333,207.518333 160.193333,207.38 160.18,207.26 L160.18,207.26 L159.29,207.26 C159.303333,207.413333 159.313333,207.59 159.32,207.79 C159.326667,207.99 159.33,208.153333 159.33,208.28 L159.33,208.28 L159.33,212 L160.27,212 Z" id="GibsonGear" fill="#FFFFFF" fill-rule="nonzero"></path>
                <rect id="Rectangle" fill="#603CF5" x="673" y="147" width="86" height="45" rx="5"></rect>
                <g id="Line" transform="translate(338.000000, 0.000000)">
                    <mask id="mask-5" fill="white">
                        <use xlink:href="#path-4"></use>
                    </mask>
                    <use id="Mask" fill="#603CF5" xlink:href="#path-4"></use>
                    <g id="Group" mask="url(#mask-5)">
                        <g transform="translate(25.281553, 37.994985)" id="Combined-Shape">
                            <path d="M44.9428465,24.0149346 C45.4920107,24.2786049 45.7234493,24.9375376 45.4597789,25.4867018 L45.4537927,25.4989745 L45.4537927,25.4989745 L39.372246,37.7722913 L60.2192557,37.7728324 C61.313548,37.7728324 62.2006472,38.6599316 62.2006472,39.754224 C62.2006472,40.7922581 61.4024161,41.6438553 60.3862953,41.728674 L56.2608614,59.7975642 C55.8401832,61.6405829 54.0577144,63.1346447 52.2796059,63.1346447 L21.1572873,63.1346447 C19.3791788,63.1346447 17.59671,61.6405829 17.1760318,59.7975642 L13.0516054,41.7287579 C12.0350048,41.6444181 11.236246,40.7926011 11.236246,39.754224 C11.236246,38.6599316 12.1233452,37.7728324 13.2176375,37.7728324 L34.344246,37.7722913 L28.2631247,25.4989745 L28.2631247,25.4989745 L28.2571384,25.4867018 C27.9934681,24.9375376 28.2249067,24.2786049 28.7740709,24.0149346 C29.3320807,23.7470173 30.0017927,23.9775952 30.2765972,24.5322456 L30.2765972,24.5322456 L36.773043,37.6443163 L36.773043,37.6443163 L36.7790293,37.656589 C36.7973851,37.6948199 36.8133414,37.7335828 36.826958,37.7727073 L36.8899594,37.7727073 C36.903576,37.7335828 36.9195323,37.6948199 36.9378881,37.656589 L36.9438744,37.6443163 L36.9438744,37.6443163 L43.4403202,24.5322456 C43.7151247,23.9775952 44.3848367,23.7470173 44.9428465,24.0149346 Z" fill="#000000" opacity="0.396846226" filter="url(#filter-6)"></path>
                            <path d="M48.3039472,0.160781951 C49.0928828,0.540761699 49.4244071,1.48835484 49.0444273,2.27729048 C49.0421541,2.2820103 49.0398575,2.28671883 49.0375375,2.2914159 L40.32,19.9402297 L70.2616505,19.9403081 C71.7936598,19.9403081 73.0355987,21.1822471 73.0355987,22.7142564 C73.0355987,24.139278 71.9610643,25.3133286 70.5780455,25.4703583 L64.6471111,51.60086 C64.045907,54.2501994 61.4985262,56.3979133 58.9573768,56.3979133 L14.4795164,56.3979133 C11.938367,56.3979133 9.39098621,54.2501994 8.78978208,51.60086 L2.863,25.4872297 L2.77394822,25.4882046 C1.24193892,25.4882046 1.87617028e-16,24.2462657 0,22.7142564 C-1.87617028e-16,21.1822471 1.24193892,19.9403081 2.77394822,19.9403081 L33.115,19.9402297 L24.3993557,2.2914159 C24.3981957,2.28906737 24.3970416,2.28671597 24.3958933,2.28436172 C24.0124861,1.48835484 24.3440104,0.540761699 25.132946,0.160781951 C25.9320435,-0.224092116 26.8920287,0.106436683 27.2848045,0.901680055 L27.2848045,0.901680055 L36.5974081,19.7566761 C36.599728,19.7613732 36.6020246,19.7660817 36.6042979,19.7708015 C36.6311825,19.8266209 36.6545053,19.8832346 36.6743564,19.9403852 L36.7625368,19.9403852 C36.7823879,19.8832346 36.8057107,19.8266209 36.8325953,19.7708015 C36.8348686,19.7660817 36.8371652,19.7613732 36.8394851,19.7566761 L46.1520887,0.901680055 C46.5448645,0.106436683 47.5048497,-0.224092116 48.3039472,0.160781951 Z" fill="#E2E2E2"></path>
                        </g>
                    </g>
                    <path d="M64.5,-8.32127832 L64.5,28.686 L76.5,28.6869741 L62,57.6869741 L47.5,28.6869741 L59.5,28.686 L59.5,-8.32127832 L64.5,-8.32127832 Z" fill="#5233D4" fill-rule="nonzero"></path>
                </g>
                <g id="Group-12" transform="translate(55.000000, 302.000000)" fill="#CCCCCC">
                    <rect id="Rectangle" x="0" y="0" width="54" height="8"></rect>
                    <rect id="Rectangle" x="156" y="0" width="67" height="8"></rect>
                    <rect id="Rectangle" x="319" y="0" width="104" height="8"></rect>
                    <rect id="Rectangle" x="477" y="0" width="67" height="8"></rect>
                    <rect id="Rectangle" x="618" y="0" width="35" height="8"></rect>
                    <g id="Group-11" transform="translate(0.000000, 40.000000)">
                        <rect id="Rectangle" x="0" y="0" width="54" height="8"></rect>
                        <rect id="Rectangle" x="156" y="0" width="67" height="8"></rect>
                        <rect id="Rectangle" x="319" y="0" width="113" height="8"></rect>
                        <rect id="Rectangle" x="477" y="0" width="81" height="8"></rect>
                        <rect id="Rectangle" x="618" y="0" width="54" height="8"></rect>
                        <rect id="Rectangle" x="0" y="17" width="76" height="8"></rect>
                        <rect id="Rectangle" x="156" y="17" width="51" height="8"></rect>
                        <rect id="Rectangle" x="319" y="17" width="76" height="8"></rect>
                        <rect id="Rectangle" x="477" y="17" width="91" height="8"></rect>
                        <rect id="Rectangle" x="618" y="17" width="44" height="8"></rect>
                        <rect id="Rectangle" x="0" y="34" width="62" height="8"></rect>
                        <rect id="Rectangle" x="156" y="34" width="67" height="8"></rect>
                        <rect id="Rectangle" x="319" y="34" width="104" height="8"></rect>
                        <rect id="Rectangle" x="477" y="34" width="54" height="8"></rect>
                        <rect id="Rectangle" x="618" y="34" width="48" height="8"></rect>
                    </g>
                    <g id="Group-11" transform="translate(0.000000, 150.000000)">
                        <rect id="Rectangle" x="0" y="0" width="54" height="8"></rect>
                        <rect id="Rectangle" x="156" y="0" width="67" height="8"></rect>
                        <rect id="Rectangle" x="319" y="0" width="113" height="8"></rect>
                        <rect id="Rectangle" x="477" y="0" width="81" height="8"></rect>
                        <rect id="Rectangle" x="618" y="0" width="54" height="8"></rect>
                        <rect id="Rectangle" x="0" y="17" width="76" height="8"></rect>
                        <rect id="Rectangle" x="156" y="17" width="51" height="8"></rect>
                        <rect id="Rectangle" x="319" y="17" width="76" height="8"></rect>
                        <rect id="Rectangle" x="477" y="17" width="91" height="8"></rect>
                        <rect id="Rectangle" x="618" y="17" width="44" height="8"></rect>
                        <rect id="Rectangle" x="0" y="34" width="62" height="8"></rect>
                        <rect id="Rectangle" x="156" y="34" width="67" height="8"></rect>
                        <rect id="Rectangle" x="319" y="34" width="104" height="8"></rect>
                        <rect id="Rectangle" x="477" y="34" width="54" height="8"></rect>
                        <rect id="Rectangle" x="618" y="34" width="48" height="8"></rect>
                    </g>
                </g>
            </g>
        </g>
    </g>
</svg>